# Made in Blockbench 4.10.4
mtllib Kusza.mtl

o cuboid
v 0.30937500000000007 0.35000000000000014 0.125
v 0.30937500000000007 0.35000000000000014 0.10000000000000003
v 0.30937500000000007 0.3093750000000002 0.125
v 0.30937500000000007 0.3093750000000002 0.10000000000000003
v -0.30937500000000007 0.35000000000000014 0.125
v -0.30937500000000007 0.35000000000000014 0.10000000000000003
v -0.30937500000000007 0.3093750000000002 0.125
v -0.30937500000000007 0.3093750000000002 0.10000000000000003
v 0 0.26875000000000016 0.25625000000000003
v 0 0.26875000000000016 0.28125000000000006
v 0.17031250000000003 0.36250000000000016 0.22500000000000006
v 0.17031250000000003 0.36250000000000016 0.25000000000000006
v 0.17031250000000003 0.29687500000000017 0.25000000000000006
v 0.17031250000000003 0.29687500000000017 0.22500000000000006
v -0.17031250000000003 0.36250000000000016 0.25000000000000006
v -0.17031250000000003 0.36250000000000016 0.22500000000000006
v -0.17031250000000003 0.29687500000000017 0.22500000000000006
v -0.17031250000000003 0.29687500000000017 0.25000000000000006
v -0.08515625000000002 0.36250000000000016 0.25625000000000003
v -0.08515625000000002 0.36250000000000016 0.28125000000000006
v -0.08515625000000002 0.28437500000000016 0.28125000000000006
v -0.08515625000000002 0.28437500000000016 0.25625000000000003
v 0.08515625000000002 0.36250000000000016 0.28125000000000006
v 0.08515625000000002 0.36250000000000016 0.25625000000000003
v 0.08515625000000002 0.28437500000000016 0.25625000000000003
v 0.08515625000000002 0.28437500000000016 0.28125000000000006
v 0.28671875 0.35000000000000014 0.10000000000000003
v 0.28671875 0.35000000000000014 0.125
v 0.28671875 0.3093750000000002 0.125
v 0.28671875 0.3093750000000002 0.10000000000000003
v -0.28671875 0.35000000000000014 0.125
v -0.28671875 0.35000000000000014 0.10000000000000003
v -0.28671875 0.3093750000000002 0.10000000000000003
v -0.28671875 0.3093750000000002 0.125
v 0.04257812500000001 0.36250000000000016 0.28125000000000006
v 0.04257812500000001 0.36250000000000016 0.25625000000000003
v 0.04257812500000001 0.26875000000000016 0.25625000000000003
v 0.04257812500000001 0.26875000000000016 0.28125000000000006
v -0.04257812500000001 0.36250000000000016 0.25625000000000003
v -0.04257812500000001 0.36250000000000016 0.28125000000000006
v -0.04257812500000001 0.26875000000000016 0.28125000000000006
v -0.04257812500000001 0.26875000000000016 0.25625000000000003
v -0.021289062500000004 0.3562500000000002 0.25625000000000003
v -0.021289062500000004 0.3562500000000002 0.28125000000000006
v -0.021289062500000004 0.26875000000000016 0.28125000000000006
v -0.021289062500000004 0.26875000000000016 0.25625000000000003
v 0.021289062500000004 0.3562500000000002 0.28125000000000006
v 0.021289062500000004 0.3562500000000002 0.25625000000000003
v 0.021289062500000004 0.26875000000000016 0.25625000000000003
v 0.021289062500000004 0.26875000000000016 0.28125000000000006
v 0.17031250000000003 0.33125000000000016 0.25000000000000006
v 0.08515625000000002 0.33125000000000016 0.28125000000000006
v 0.04257812500000001 0.33125000000000016 0.28125000000000006
v 0.021289062500000004 0.33125000000000016 0.28125000000000006
v 0 0.33125000000000016 0.28125000000000006
v -0.021289062500000004 0.33125000000000016 0.28125000000000006
v -0.04257812500000001 0.33125000000000016 0.28125000000000006
v -0.08515625000000002 0.33125000000000016 0.28125000000000006
v -0.17031250000000003 0.33125000000000016 0.25000000000000006
v -0.28671875 0.33125000000000016 0.125
v -0.30937500000000007 0.33125000000000016 0.125
v -0.30937500000000007 0.33125000000000016 0.10000000000000003
v -0.28671875 0.33125000000000016 0.10000000000000003
v -0.17031250000000003 0.33125000000000016 0.22500000000000006
v -0.08515625000000002 0.33125000000000016 0.25625000000000003
v -0.04257812500000001 0.33125000000000016 0.25625000000000003
v -0.021289062500000004 0.33125000000000016 0.25625000000000003
v 0 0.33125000000000016 0.25625000000000003
v 0.021289062500000004 0.33125000000000016 0.25625000000000003
v 0.04257812500000001 0.33125000000000016 0.25625000000000003
v 0.08515625000000002 0.33125000000000016 0.25625000000000003
v 0.17031250000000003 0.33125000000000016 0.22500000000000006
v 0.28671875 0.33125000000000016 0.10000000000000003
v 0.30937500000000007 0.33125000000000016 0.10000000000000003
v 0.30937500000000007 0.33125000000000016 0.125
v 0.28671875 0.33125000000000016 0.125
v 0.04257812500000001 0.34687500000000016 0.28125000000000006
v 0.021289062500000004 0.34687500000000016 0.28125000000000006
v 0 0.3406250000000002 0.28125000000000006
v -0.021289062500000004 0.34687500000000016 0.28125000000000006
v -0.04257812500000001 0.34687500000000016 0.28125000000000006
v -0.04257812500000001 0.34687500000000016 0.25625000000000003
v -0.021289062500000004 0.34687500000000016 0.25625000000000003
v 0 0.3406250000000002 0.25625000000000003
v 0.021289062500000004 0.34687500000000016 0.25625000000000003
v 0.04257812500000001 0.34687500000000016 0.25625000000000003
v 0.17031250000000003 0.34687500000000016 0.25000000000000006
v 0.08515625000000002 0.34687500000000016 0.28125000000000006
v -0.08515625000000002 0.34687500000000016 0.28125000000000006
v -0.17031250000000003 0.34687500000000016 0.25000000000000006
v -0.28671875 0.34687500000000016 0.125
v -0.30937500000000007 0.34687500000000016 0.125
v -0.30937500000000007 0.34687500000000016 0.10000000000000003
v -0.28671875 0.34687500000000016 0.10000000000000003
v -0.17031250000000003 0.34687500000000016 0.22500000000000006
v -0.08515625000000002 0.34687500000000016 0.25625000000000003
v 0.08515625000000002 0.34687500000000016 0.25625000000000003
v 0.17031250000000003 0.34687500000000016 0.22500000000000006
v 0.28671875 0.34687500000000016 0.10000000000000003
v 0.30937500000000007 0.34687500000000016 0.10000000000000003
v 0.30937500000000007 0.34687500000000016 0.125
v 0.28671875 0.34687500000000016 0.125
vt 0.22332421874999997 0.796875
vt 0.20203515625 0.7890625
vt 0.20203515625 0.7828125
vt 0.22332421874999997 0.790625
vt 0.25443906250000003 0.88125
vt 0.23292187500000006 0.8890625000000001
vt 0.23292187500000006 0.8828125
vt 0.25443906250000003 0.875
vt 0.19855078125 0.915625
vt 0.21983984374999999 0.9078125
vt 0.21983984374999999 0.9140625
vt 0.19855078125 0.921875
vt 0.16743593750000005 0.8750000000000001
vt 0.18895312500000006 0.8828125000000001
vt 0.18895312500000006 0.8890625000000001
vt 0.16743593750000008 0.8812500000000001
vt 0.22332421874999997 0.790625
vt 0.25259296875000004 0.821875
vt 0.25259296875000004 0.828125
vt 0.22332421875 0.796875
vt 0.25443906250000003 0.875
vt 0.28370781250000005 0.84375
vt 0.28370781250000005 0.85
vt 0.25443906250000003 0.88125
vt 0.19855078125 0.921875
vt 0.16928203125 0.953125
vt 0.16928203125 0.946875
vt 0.19855078125 0.915625
vt 0.16743593750000008 0.8812500000000001
vt 0.13816718749999998 0.8500000000000001
vt 0.13816718749999995 0.8437500000000001
vt 0.16743593750000005 0.8750000000000001
vt 0.21983984374999999 0.9078125
vt 0.23048359375 0.9078125
vt 0.23048359375 0.9140625
vt 0.21983984374999999 0.9140625
vt 0.0255859375 0.796875
vt 0.0255859375 0.79296875
vt 0.036229687499999996 0.79296875
vt 0.036229687499999996 0.796875
vt 0.18895312500000006 0.8828125000000001
vt 0.20029218750000005 0.8828125
vt 0.20029218750000005 0.8890625000000001
vt 0.18895312500000006 0.8890625000000001
vt 0.2293953125 1
vt 0.2293953125 0.99609375
vt 0.2400390625 0.99609375
vt 0.2400390625 1
vt 0.20203515625 0.7890625
vt 0.19139140624999998 0.7890625
vt 0.19139140624999998 0.7828125
vt 0.20203515625 0.7828125
vt 0.1974609375 1
vt 0.1974609375 0.99609375
vt 0.2081046875 0.99609375
vt 0.2081046875 1
vt 0.23292187500000006 0.8890625000000001
vt 0.22158281250000006 0.8890625000000001
vt 0.22158281250000006 0.8828125
vt 0.23292187500000006 0.8828125
vt 0.057520312500000004 0.796875
vt 0.057520312500000004 0.79296875
vt 0.06816406250000001 0.79296875
vt 0.06816406250000001 0.796875
vt 0.25825703125 0.828125
vt 0.25259296875000004 0.828125
vt 0.25259296875000004 0.821875
vt 0.25825703125 0.8218749999999999
vt 0.28937187500000006 0.85
vt 0.28370781250000005 0.85
vt 0.28370781250000005 0.84375
vt 0.28937187500000006 0.84375
vt 0.16361796875 0.946875
vt 0.16928203125 0.946875
vt 0.16928203125 0.953125
vt 0.16361796875 0.953125
vt 0.13250312499999997 0.8437500000000002
vt 0.13816718749999995 0.8437500000000001
vt 0.13816718749999998 0.8500000000000001
vt 0.132503125 0.8500000000000001
vt 0.19139140624999998 0.7890625
vt 0.18584453124999997 0.7890625
vt 0.18584453124999997 0.7828125
vt 0.19139140624999998 0.7828125
vt 0.2081046875 1
vt 0.2081046875 0.99609375
vt 0.213428125 0.99609375
vt 0.213428125 0.9984375
vt 0.22158281250000006 0.8890625000000001
vt 0.21625937500000006 0.8890625000000001
vt 0.21625937500000006 0.8828125
vt 0.22158281250000006 0.8828125
vt 0.052196875000000004 0.7953125
vt 0.052196875000000004 0.79296875
vt 0.057520312500000004 0.79296875
vt 0.057520312500000004 0.796875
vt 0.23048359375 0.9078125
vt 0.23603046875 0.9078125
vt 0.23603046875 0.9140625
vt 0.23048359375 0.9140625
vt 0.036229687499999996 0.796875
vt 0.036229687499999996 0.79296875
vt 0.041553124999999996 0.79296875
vt 0.041553124999999996 0.7953125
vt 0.20029218750000005 0.8828125
vt 0.20561562500000005 0.8828125
vt 0.20561562500000008 0.8890625000000001
vt 0.20029218750000005 0.8890625000000001
vt 0.224071875 0.9984375
vt 0.224071875 0.99609375
vt 0.2293953125 0.99609375
vt 0.2293953125 1
vt 0.21093750000000006 0.8890625000000001
vt 0.20561562500000008 0.8890625000000001
vt 0.20561562500000005 0.8828125
vt 0.21093750000000006 0.8828125
vt 0.21093750000000006 0.8828125
vt 0.21625937500000006 0.8828125
vt 0.21625937500000006 0.8890625000000001
vt 0.21093750000000006 0.8890625000000001
vt 0.09084062500000001 0.78046875
vt 0.09084062500000001 0.7890625
vt 0.06816406250000001 0.7890625
vt 0.06816406250000001 0.77734375
vt 0.0681640625 0.77734375
vt 0.0681640625 0.7890625
vt 0.057520312500000004 0.7890625
vt 0.057520312500000004 0.7734375
vt 0.057520312500000004 0.7734375
vt 0.057520312500000004 0.7890625
vt 0.052196875000000004 0.7890625
vt 0.052196875000000004 0.7734375
vt 0.052196875000000004 0.7734375
vt 0.052196875000000004 0.7890625
vt 0.046875 0.7890625
vt 0.046875 0.7734375
vt 0.046875 0.7734375
vt 0.046875 0.7890625
vt 0.041553124999999996 0.7890625
vt 0.041553124999999996 0.7734375
vt 0.041553124999999996 0.7734375
vt 0.041553124999999996 0.7890625
vt 0.036229687499999996 0.7890625
vt 0.036229687499999996 0.7734375
vt 0.036229687499999996 0.7734375
vt 0.036229687499999996 0.7890625
vt 0.0255859375 0.7890625
vt 0.0255859375 0.77734375
vt 0.0255859375 0.77734375
vt 0.0255859375 0.7890625
vt 0.002909374999999992 0.7890625
vt 0.002909374999999992 0.78046875
vt 0.433328125 0.98359375
vt 0.433328125 0.9921875
vt 0.390625 0.9921875
vt 0.390625 0.98671875
vt 0.51064453125 0.89609375
vt 0.51064453125 0.9015625
vt 0.50498046875 0.9015625
vt 0.50498046875 0.89609375
vt 0.0734375 0.48984375
vt 0.0734375 0.49531250000000004
vt 0.0671875 0.49531250000000004
vt 0.0671875 0.48984375
vt 0.13564453125 0.48984375
vt 0.13564453125 0.49531250000000004
vt 0.12998046875 0.49531250000000004
vt 0.12998046875 0.48984375
vt 0.21457656249999998 0.83046875
vt 0.21457656249999998 0.8359375
vt 0.171875 0.8359375
vt 0.171875 0.82734375
vt 0.262715625 0.98359375
vt 0.262715625 0.9921875
vt 0.2400390625 0.9921875
vt 0.2400390625 0.98046875
vt 0.2400390625 0.98046875
vt 0.2400390625 0.9921875
vt 0.2293953125 0.9921875
vt 0.2293953125 0.9765625
vt 0.2293953125 0.9765625
vt 0.2293953125 0.9921875
vt 0.224071875 0.9921875
vt 0.224071875 0.9765625
vt 0.224071875 0.9765625
vt 0.224071875 0.9921875
vt 0.21875 0.9921875
vt 0.21875 0.9765625
vt 0.21875 0.9765625
vt 0.21875 0.9921875
vt 0.213428125 0.9921875
vt 0.21342812500000002 0.9765625
vt 0.21342812500000002 0.9765625
vt 0.213428125 0.9921875
vt 0.2081046875 0.9921875
vt 0.2081046875 0.9765625
vt 0.2081046875 0.9765625
vt 0.2081046875 0.9921875
vt 0.1974609375 0.9921875
vt 0.1974609375 0.98046875
vt 0.1974609375 0.98046875
vt 0.1974609375 0.9921875
vt 0.174784375 0.9921875
vt 0.174784375 0.98359375
vt 0.453125 0.57734375
vt 0.453125 0.5859375
vt 0.4104234375 0.5859375
vt 0.4104234375 0.58046875
vt 0.16689453125 0.48984375
vt 0.16689453125 0.49531250000000004
vt 0.16123046875 0.49531250000000004
vt 0.16123046875 0.48984375
vt 0.5109375 0.92734375
vt 0.5109375 0.9328125
vt 0.5046875 0.9328125
vt 0.5046875 0.92734375
vt 0.51064453125 0.77109375
vt 0.51064453125 0.7765625
vt 0.50498046875 0.7765625
vt 0.50498046875 0.77109375
vt 0.109375 0.98671875
vt 0.109375 0.9921875
vt 0.066671875 0.9921875
vt 0.066671875 0.98359375
vt 0.09084062500000001 0.7890625
vt 0.09084062500000001 0.79296875
vt 0.0681640625 0.79296875
vt 0.0681640625 0.7890625
vt 0.0681640625 0.7890625
vt 0.0681640625 0.79296875
vt 0.057520312500000004 0.79296875
vt 0.057520312500000004 0.7890625
vt 0.057520312500000004 0.7890625
vt 0.057520312500000004 0.79296875
vt 0.052196875000000004 0.79296875
vt 0.052196875000000004 0.7890625
vt 0.052196875000000004 0.7890625
vt 0.052196875000000004 0.79296875
vt 0.046875 0.79140625
vt 0.046875 0.7890625
vt 0.046875 0.7890625
vt 0.046875 0.79140625
vt 0.041553124999999996 0.79296875
vt 0.041553124999999996 0.7890625
vt 0.041553124999999996 0.7890625
vt 0.041553124999999996 0.79296875
vt 0.036229687499999996 0.79296875
vt 0.036229687499999996 0.7890625
vt 0.036229687499999996 0.7890625
vt 0.036229687499999996 0.79296875
vt 0.0255859375 0.79296875
vt 0.0255859375 0.7890625
vt 0.0255859375 0.7890625
vt 0.0255859375 0.79296875
vt 0.002909374999999992 0.79296875
vt 0.002909374999999992 0.7890625
vt 0.433328125 0.9921875
vt 0.433328125 0.99609375
vt 0.390625 0.99609375
vt 0.390625 0.9921875
vt 0.51064453125 0.9015625
vt 0.51064453125 0.90546875
vt 0.50498046875 0.90546875
vt 0.50498046875 0.9015625
vt 0.0734375 0.49531250000000004
vt 0.0734375 0.49921875000000004
vt 0.0671875 0.49921875000000004
vt 0.0671875 0.49531250000000004
vt 0.13564453125 0.49531250000000004
vt 0.13564453125 0.49921875000000004
vt 0.12998046875 0.49921875000000004
vt 0.12998046875 0.49531250000000004
vt 0.21457656249999998 0.8359375
vt 0.21457656249999998 0.83984375
vt 0.171875 0.83984375
vt 0.171875 0.8359375
vt 0.262715625 0.9921875
vt 0.262715625 0.99609375
vt 0.2400390625 0.99609375
vt 0.2400390625 0.9921875
vt 0.2400390625 0.9921875
vt 0.2400390625 0.99609375
vt 0.2293953125 0.99609375
vt 0.2293953125 0.9921875
vt 0.2293953125 0.9921875
vt 0.2293953125 0.99609375
vt 0.224071875 0.99609375
vt 0.224071875 0.9921875
vt 0.224071875 0.9921875
vt 0.224071875 0.99609375
vt 0.21875 0.99453125
vt 0.21875 0.9921875
vt 0.21875 0.9921875
vt 0.21875 0.99453125
vt 0.213428125 0.99609375
vt 0.213428125 0.9921875
vt 0.213428125 0.9921875
vt 0.213428125 0.99609375
vt 0.2081046875 0.99609375
vt 0.2081046875 0.9921875
vt 0.2081046875 0.9921875
vt 0.2081046875 0.99609375
vt 0.1974609375 0.99609375
vt 0.1974609375 0.9921875
vt 0.1974609375 0.9921875
vt 0.1974609375 0.99609375
vt 0.174784375 0.99609375
vt 0.174784375 0.9921875
vt 0.453125 0.5859375
vt 0.453125 0.58984375
vt 0.4104234375 0.58984375
vt 0.4104234375 0.5859375
vt 0.16689453125 0.49531250000000004
vt 0.16689453125 0.49921875000000004
vt 0.16123046875 0.49921875000000004
vt 0.16123046875 0.49531250000000004
vt 0.5109375 0.9328125
vt 0.5109375 0.93671875
vt 0.5046875 0.93671875
vt 0.5046875 0.9328125
vt 0.51064453125 0.7765625
vt 0.51064453125 0.78046875
vt 0.50498046875 0.78046875
vt 0.50498046875 0.7765625
vt 0.109375 0.9921875
vt 0.109375 0.99609375
vt 0.066671875 0.99609375
vt 0.066671875 0.9921875
vt 0.041553124999999996 0.7953125
vt 0.041553124999999996 0.79296875
vt 0.046875 0.79140625
vt 0.21875 0.99453125
vt 0.224071875 0.99609375
vt 0.224071875 0.9984375
vt 0.213428125 0.9984375
vt 0.213428125 0.99609375
vt 0.21875 0.99453125
vt 0.046875 0.79140625
vt 0.052196875000000004 0.79296875
vt 0.052196875000000004 0.7953125
vt 0.24263203125 0.9078125
vt 0.24263203125 0.9140625
vt 0.23603046875 0.9140625
vt 0.23603046875 0.9078125
vt 0.18584453124999997 0.7828125
vt 0.18584453124999997 0.7890625
vt 0.17924296874999998 0.7890625
vt 0.17924296874999998 0.7828125
vt 0.5046875 0.9375
vt 0.5046875 0.93671875
vt 0.5109375 0.93671875
vt 0.5109375 0.9375
vt 0.0671875 0.5
vt 0.0671875 0.49921875000000004
vt 0.0734375 0.49921875000000004
vt 0.0734375 0.5
vt 0.06816406250000001 0.796875
vt 0.06816406250000001 0.79296875
vt 0.09084062500000001 0.79296875
vt 0.09084062500000001 0.796875
vt 0.174784375 1
vt 0.174784375 0.99609375
vt 0.1974609375 0.99609375
vt 0.1974609375 1
vt 0.2400390625 1
vt 0.2400390625 0.99609375
vt 0.262715625 0.99609375
vt 0.262715625 1
vt 0.002909374999999992 0.796875
vt 0.002909374999999992 0.79296875
vt 0.0255859375 0.79296875
vt 0.0255859375 0.796875
vt 0.066671875 1
vt 0.066671875 0.99609375
vt 0.109375 0.99609375
vt 0.109375 0.996875
vt 0.4104234375 0.590625
vt 0.4104234375 0.58984375
vt 0.453125 0.58984375
vt 0.453125 0.59375
vt 0.171875 0.84375
vt 0.171875 0.83984375
vt 0.21457656249999998 0.83984375
vt 0.21457656249999998 0.840625
vt 0.390625 0.996875
vt 0.390625 0.99609375
vt 0.433328125 0.99609375
vt 0.433328125 1
vt 0.50498046875 0.78125
vt 0.50498046875 0.78046875
vt 0.51064453125 0.78046875
vt 0.51064453125 0.78125
vt 0.16123046875 0.5
vt 0.16123046875 0.49921875000000004
vt 0.16689453125 0.49921875000000004
vt 0.16689453125 0.5
vt 0.12998046875 0.5
vt 0.12998046875 0.49921875000000004
vt 0.13564453125 0.49921875000000004
vt 0.13564453125 0.5
vt 0.50498046875 0.90625
vt 0.50498046875 0.90546875
vt 0.51064453125 0.90546875
vt 0.51064453125 0.90625
vn 0 1 0
vn 0.14523266500207127 -0.9893975303266105 0
vn 0 1 0
vn -0.14523266500207124 -0.9893975303266105 0
vn 0.10676873891947743 0.9942838811876338 0
vn 0.10676873891947743 -0.9942838811876338 0
vn -0.10676873891947743 0.9942838811876338 0
vn -0.10676873891947743 -0.9942838811876338 0
vn 0 1 0
vn 0 0 1
vn -0.34450770303612605 -0.9387834907734438 0
vn 0 0 -1
vn 0 1 0
vn 0 0 -1
vn 0.34450770303612605 -0.9387834907734438 0
vn 0 0 1
vn 0 1 0
vn 0 -1 0
vn 0 1 0
vn 0 -1 0
vn -0.28168970428504064 0.9595055552209202 0
vn 0 0 -1
vn 0 -1 0
vn 0 0 1
vn 0.28168970428504064 0.9595055552209202 0
vn 0 0 1
vn 0 -1 0
vn 0 0 -1
vn 0 -1 0
vn 0 -1 0
vn 0.34450770303612605 0 0.9387834907734437
vn 0 0 1
vn 0 0 1
vn 0 0 1
vn 0 0 1
vn 0 0 1
vn 0 0 1
vn -0.3445077030361261 0 0.9387834907734437
vn -0.7318153110623205 0 0.6815030084267856
vn 0 0 1
vn -1 0 0
vn 0 0 -1
vn 0.7318153110623203 0 -0.6815030084267857
vn 0.34450770303612605 0 -0.9387834907734438
vn 0 0 -1
vn 0 0 -1
vn 0 0 -1
vn 0 0 -1
vn 0 0 -1
vn 0 0 -1
vn -0.344507703036126 0 -0.9387834907734437
vn -0.7318153110623203 0 -0.6815030084267857
vn 0 0 -1
vn 1 0 0
vn 0 0 1
vn 0.7318153110623205 0 0.6815030084267855
vn 0.3445077030361261 0 0.9387834907734438
vn 0 0 1
vn 0 0 1
vn 0 0 1
vn 0 0 1
vn 0 0 1
vn 0 0 1
vn -0.3445077030361261 0 0.9387834907734438
vn -0.7318153110623205 0 0.6815030084267856
vn 0 0 1
vn -1 0 0
vn 0 0 -1
vn 0.7318153110623203 0 -0.6815030084267857
vn 0.344507703036126 0 -0.9387834907734437
vn 0 0 -1
vn 0 0 -1
vn 0 0 -1
vn 0 0 -1
vn 0 0 -1
vn 0 0 -1
vn -0.344507703036126 0 -0.9387834907734437
vn -0.7318153110623203 0 -0.6815030084267857
vn 0 0 -1
vn 1 0 0
vn 0 0 1
vn 0.7318153110623205 0 0.6815030084267856
vn 0 0 1
vn 0 0 -1
vn 0 0 -1
vn 0 0 1
vn 0.5916842550250504 0.8061697974716314 0
vn -0.5916842550250504 0.8061697974716314 0
vn 1 0 0
vn -1 0 0
vn 0.3445077030361261 0 0.9387834907734438
vn -0.344507703036126 0 -0.9387834907734437
vn 0.344507703036126 0 -0.9387834907734437
vn -0.3445077030361261 0 0.9387834907734438
vn 0.7318153110623205 0 0.6815030084267856
vn -0.7318153110623203 0 -0.6815030084267856
vn 0.7318153110623203 0 -0.6815030084267857
vn -0.7318153110623205 0 0.6815030084267856
vn 0 0 1
vn 0 0 -1
vn 0 0 -1
vn 0 0 1
usemtl m_5477c04c-f4b8-9707-abd6-cd571960704f
f 11/1/1 24/2/1 23/3/1 12/4/1
f 13/5/2 26/6/2 25/7/2 14/8/2
f 15/9/3 20/10/3 19/11/3 16/12/3
f 17/13/4 22/14/4 21/15/4 18/16/4
f 12/17/5 28/18/5 27/19/5 11/20/5
f 14/21/6 30/22/6 29/23/6 13/24/6
f 16/25/7 32/26/7 31/27/7 15/28/7
f 18/29/8 34/30/8 33/31/8 17/32/8
f 20/33/9 40/34/9 39/35/9 19/36/9
f 20/37/10 89/38/10 81/39/10 40/40/10
f 22/41/11 42/42/11 41/43/11 21/44/11
f 39/45/12 82/46/12 96/47/12 19/48/12
f 24/49/13 36/50/13 35/51/13 23/52/13
f 24/53/14 97/54/14 86/55/14 36/56/14
f 26/57/15 38/58/15 37/59/15 25/60/15
f 35/61/16 77/62/16 88/63/16 23/64/16
f 2/65/17 27/66/17 28/67/17 1/68/17
f 3/69/18 29/70/18 30/71/18 4/72/18
f 5/73/19 31/74/19 32/75/19 6/76/19
f 8/77/20 33/78/20 34/79/20 7/80/20
f 36/81/21 48/82/21 47/83/21 35/84/21
f 36/85/22 86/86/22 85/87/22 48/88/22
f 38/89/23 50/90/23 49/91/23 37/92/23
f 47/93/24 78/94/24 77/95/24 35/96/24
f 40/97/25 44/98/25 43/99/25 39/100/25
f 40/101/26 81/102/26 80/103/26 44/104/26
f 42/105/27 46/106/27 45/107/27 41/108/27
f 43/109/28 83/110/28 82/111/28 39/112/28
f 10/113/29 45/114/29 46/115/29 9/116/29
f 9/117/30 49/118/30 50/119/30 10/120/30
f 13/121/31 51/122/31 52/123/31 26/124/31
f 26/125/32 52/126/32 53/127/32 38/128/32
f 38/129/33 53/130/33 54/131/33 50/132/33
f 50/133/34 54/134/34 55/135/34 10/136/34
f 10/137/35 55/138/35 56/139/35 45/140/35
f 45/141/36 56/142/36 57/143/36 41/144/36
f 41/145/37 57/146/37 58/147/37 21/148/37
f 21/149/38 58/150/38 59/151/38 18/152/38
f 18/153/39 59/154/39 60/155/39 34/156/39
f 34/157/40 60/158/40 61/159/40 7/160/40
f 7/161/41 61/162/41 62/163/41 8/164/41
f 8/165/42 62/166/42 63/167/42 33/168/42
f 33/169/43 63/170/43 64/171/43 17/172/43
f 17/173/44 64/174/44 65/175/44 22/176/44
f 22/177/45 65/178/45 66/179/45 42/180/45
f 42/181/46 66/182/46 67/183/46 46/184/46
f 46/185/47 67/186/47 68/187/47 9/188/47
f 9/189/48 68/190/48 69/191/48 49/192/48
f 49/193/49 69/194/49 70/195/49 37/196/49
f 37/197/50 70/198/50 71/199/50 25/200/50
f 25/201/51 71/202/51 72/203/51 14/204/51
f 14/205/52 72/206/52 73/207/52 30/208/52
f 30/209/53 73/210/53 74/211/53 4/212/53
f 4/213/54 74/214/54 75/215/54 3/216/54
f 3/217/55 75/218/55 76/219/55 29/220/55
f 29/221/56 76/222/56 51/223/56 13/224/56
f 51/225/57 87/226/57 88/227/57 52/228/57
f 52/229/58 88/230/58 77/231/58 53/232/58
f 53/233/59 77/234/59 78/235/59 54/236/59
f 54/237/60 78/238/60 79/239/60 55/240/60
f 55/241/61 79/242/61 80/243/61 56/244/61
f 56/245/62 80/246/62 81/247/62 57/248/62
f 57/249/63 81/250/63 89/251/63 58/252/63
f 58/253/64 89/254/64 90/255/64 59/256/64
f 59/257/65 90/258/65 91/259/65 60/260/65
f 60/261/66 91/262/66 92/263/66 61/264/66
f 61/265/67 92/266/67 93/267/67 62/268/67
f 62/269/68 93/270/68 94/271/68 63/272/68
f 63/273/69 94/274/69 95/275/69 64/276/69
f 64/277/70 95/278/70 96/279/70 65/280/70
f 65/281/71 96/282/71 82/283/71 66/284/71
f 66/285/72 82/286/72 83/287/72 67/288/72
f 67/289/73 83/290/73 84/291/73 68/292/73
f 68/293/74 84/294/74 85/295/74 69/296/74
f 69/297/75 85/298/75 86/299/75 70/300/75
f 70/301/76 86/302/76 97/303/76 71/304/76
f 71/305/77 97/306/77 98/307/77 72/308/77
f 72/309/78 98/310/78 99/311/78 73/312/78
f 73/313/79 99/314/79 100/315/79 74/316/79
f 74/317/80 100/318/80 101/319/80 75/320/80
f 75/321/81 101/322/81 102/323/81 76/324/81
f 76/325/82 102/326/82 87/327/82 51/328/82
f 44/329/83 80/330/83 79/331/83
f 84/332/84 83/333/84 43/334/84
f 48/335/85 85/336/85 84/337/85
f 79/338/86 78/339/86 47/340/86
f 79/341/87 84/342/87 43/343/87 44/344/87
f 47/345/88 48/346/88 84/347/88 79/348/88
f 1/349/89 101/350/89 100/351/89 2/352/89
f 6/353/90 93/354/90 92/355/90 5/356/90
f 23/357/91 88/358/91 87/359/91 12/360/91
f 11/361/92 98/362/92 97/363/92 24/364/92
f 19/365/93 96/366/93 95/367/93 16/368/93
f 15/369/94 90/370/94 89/371/94 20/372/94
f 12/373/95 87/374/95 102/375/95 28/376/95
f 27/377/96 99/378/96 98/379/96 11/380/96
f 16/381/97 95/382/97 94/383/97 32/384/97
f 31/385/98 91/386/98 90/387/98 15/388/98
f 28/389/99 102/390/99 101/391/99 1/392/99
f 2/393/100 100/394/100 99/395/100 27/396/100
f 32/397/101 94/398/101 93/399/101 6/400/101
f 5/401/102 92/402/102 91/403/102 31/404/102
o cuboid
v 0.2940090040147702 0.35000000000000003 0.10489130434782568
v -0.29389798451674115 0.35000000000000003 0.10489130434782568
v 0.00005550974901440478 0.35000000000000003 -0.1625000000000002
v 0.2940090040147702 0.34375000000000006 0.10489130434782568
v -0.29389798451674115 0.34375000000000006 0.10489130434782568
v 0.00005550974901440478 0.34375000000000006 -0.1625000000000002
v -0.00048562045355526537 0.34375000000000006 -0.1548913043478264
v -0.29928253316675113 0.34375000000000006 0.1217112115273109
v -0.301092315871943 0.34375000000000006 0.12338656501372358
v -0.00048562045355526537 0.35000000000000003 -0.1548913043478264
v 0.2751600178817391 0.3443898972164582 0.10027959538210024
v 0.30660059633549436 0.34375000000000006 0.12938479269458325
vt 0.15527890625000002 0.7764636021538238
vt 0.08100390625 0.8460854771538239
vt 0.07909609375 0.8460854771538239
vt 0.15098984375 0.7775417271538239
vt 0.00216328125000001 0.993346875
vt 0.0039617187500000095 0.9887234375
vt 0.07745078125000002 0.921875
vt 0.07731484375000001 0.9237765625
vt 0.3125 0.953125
vt 0.21875 0.953125
vt 0.21875 0.9375
vt 0.3125 0.9375
vt 0.49195625 0.6234375
vt 0.59375 0.6234375
vt 0.49195625 0.625
vt 0.491340625 0.6546875
vt 0.59375 0.6546875
vt 0.491340625 0.65625
vt 0.171875 0.75
vt 0.265625 0.75
vt 0.265625 0.765625
vt 0.171875 0.765625
vt 0.08100390625 0.8460854771538239
vt 0.14574974026821658 0.9141157527895053
vt 0.14665014613814847 0.9190848046407786
vt 0.07927237916815684 0.8460854771538239
vt 0.15408671875 0.994846875
vt 0.07731484375000001 0.9237765625
vt 0.07745078125000002 0.921875
vt 0.15093828125 0.9887234375
vt 0.1531350781770202 0.921875
vt 0.14665014613814847 0.9190848046407786
vt 0.14574974026821658 0.9141157527895053
vn -0.022385766187749078 0.9997481396678647 -0.0015920750080722738
vn 0 -1 0
vn -0.6728943932028162 0 -0.739738558949183
vn -0.6793269803882903 0 -0.7338357130288273
vn -0.6793269803882904 0 -0.7338357130288273
vn 0.672894393202816 0 -0.7397385589491832
vn -0.3496408085649229 0.8489112726501149 0.3963596298232569
vn 0 -1 0
vn -0.3496408085649224 0.8489112726501153 0.39635962982325634
usemtl m_5477c04c-f4b8-9707-abd6-cd571960704f
f 110/405/103 112/406/103 105/407/103 104/408/103
f 111/409/104 107/410/104 108/411/104 109/412/104
f 104/413/105 105/414/105 108/415/105 107/416/105
f 109/417/106 110/418/106 112/419/106
f 109/420/107 111/421/107 112/422/107
f 106/423/108 108/424/108 105/425/108 103/426/108
f 112/427/109 113/428/109 103/429/109 105/430/109
f 114/431/110 109/432/110 108/433/110 106/434/110
f 114/435/111 103/436/111 113/437/111
o cuboid
v 0.037500000000000006 0.3437499999999999 0.10625000000000001
v 0.037500000000000006 0.2812499999999999 0.10625000000000001
v -0.03749999999999999 0.3437499999999999 0.10625000000000001
v -0.03749999999999999 0.2812499999999999 0.10625000000000001
v 0.037500000000000006 0.3437499999999999 -0.23125
v 0.037500000000000006 0.2812499999999999 -0.23125
v -0.03749999999999999 0.3437499999999999 -0.23125
v -0.03749999999999999 0.2812499999999999 -0.23125
v 3.469446951953614e-18 0.2812499999999999 -0.23125
v 3.469446951953614e-18 0.2812499999999999 0.10625000000000001
v 0.018750000000000003 0.2812499999999999 -0.23125
v 0.018750000000000003 0.3437499999999999 0.10625000000000001
v 0.018750000000000003 0.2812499999999999 0.10625000000000001
v 0.009375000000000003 0.3437499999999999 -0.23125
v 0.009375000000000003 0.2812499999999999 -0.23125
v 0.009375000000000003 0.2812499999999999 0.10625000000000001
v -0.018749999999999996 0.3437499999999999 -0.23125
v -0.018749999999999996 0.3437499999999999 0.10625000000000001
v -0.018749999999999996 0.2812499999999999 0.10625000000000001
v -0.018749999999999996 0.2812499999999999 -0.23125
v -0.009374999999999996 0.2812499999999999 0.10625000000000001
v -0.009374999999999996 0.2812499999999999 -0.23125
v 0.037500000000000006 0.3124999999999999 -0.23125
v 0.037500000000000006 0.3124999999999999 0.10625000000000001
v 0.018750000000000003 0.3124999999999999 0.10625000000000001
v 0.009375000000000003 0.3124999999999999 0.10625000000000001
v 3.469446951953614e-18 0.3124999999999999 0.10625000000000001
v -0.009374999999999996 0.3124999999999999 0.10625000000000001
v -0.018749999999999996 0.3124999999999999 0.10625000000000001
v -0.03749999999999999 0.3124999999999999 0.10625000000000001
v -0.03749999999999999 0.3124999999999999 -0.23125
v -0.018749999999999996 0.3124999999999999 -0.23125
v -0.009374999999999996 0.3124999999999999 -0.23125
v 3.469446951953614e-18 0.3124999999999999 -0.23125
v 0.018750000000000003 0.3124999999999999 -0.23125
v 0.037500000000000006 0.3281249999999999 -0.23125
v 0.037500000000000006 0.3281249999999999 0.10625000000000001
v 0.018750000000000003 0.3281249999999999 0.10625000000000001
v 0.009375000000000003 0.3281249999999999 0.10625000000000001
v 3.469446951953614e-18 0.3281249999999999 0.10625000000000001
v -0.009374999999999996 0.3281249999999999 0.10625000000000001
v -0.018749999999999996 0.3281249999999999 0.10625000000000001
v -0.03749999999999999 0.3281249999999999 0.10625000000000001
v -0.03749999999999999 0.3281249999999999 -0.23125
v -0.018749999999999996 0.3281249999999999 -0.23125
v -0.009374999999999996 0.3281249999999999 -0.23125
v 0.037500000000000006 0.3359374999999999 -0.23125
v 0.037500000000000006 0.3359374999999999 0.10625000000000001
v 0.018750000000000003 0.3359374999999999 0.10625000000000001
v 0.009375000000000003 0.3359374999999999 0.10625000000000001
v -0.009374999999999996 0.3359374999999999 0.10625000000000001
v -0.018749999999999996 0.3359374999999999 0.10625000000000001
v -0.03749999999999999 0.3359374999999999 0.10625000000000001
v -0.03749999999999999 0.3359374999999999 -0.23125
v -0.018749999999999996 0.3359374999999999 -0.23125
v -0.009374999999999996 0.3359374999999999 -0.23125
v 0.018750000000000003 0.3359374999999999 -0.23125
v -0.009374999999999996 0.3437499999999999 -0.23125
v 0.009375000000000003 0.3437499999999999 0.10625000000000001
v 0.018750000000000003 0.3437499999999999 -0.23125
v 0.009375000000000003 0.3124999999999999 -0.23125
v 3.469446951953614e-18 0.3281249999999999 -0.23125
v 0.009375000000000003 0.3281249999999999 -0.23125
v 0.018750000000000003 0.3281249999999999 -0.23125
v 0.009375000000000003 0.3359374999999999 -0.23125
v -0.009374999999999996 0.3437499999999999 0.10625000000000001
v 3.469446951953614e-18 0.3359374999999999 -0.23125
v 3.469446951953614e-18 0.3359374999999999 0.10625000000000001
vt 0.43984375 0.90625
vt 0.43984375 0.904296875
vt 0.4421875 0.904296875
vt 0.4421875 0.90625
vt 0.020312499999999997 0.9125
vt 0.01796875 0.9125
vt 0.01796875 0.828125
vt 0.020312499999999997 0.828125
vt 0.256640625 0.59375
vt 0.254296875 0.59375
vt 0.254296875 0.509375
vt 0.256640625 0.509375
vt 0.00625 0.828125
vt 0.0109375 0.828125
vt 0.0109375 0.9125
vt 0.00625 0.9125
vt 0.428125 0.90625
vt 0.428125 0.904296875
vt 0.4328125 0.904296875
vt 0.4328125 0.90625
vt 0.004296875 0.49375
vt 0.008984375 0.49375
vt 0.008984375 0.578125
vt 0.004296875 0.578125
vt 0.261328125 0.59375
vt 0.256640625 0.59375
vt 0.256640625 0.509375
vt 0.261328125 0.509375
vt 0.4421875 0.90625
vt 0.4421875 0.904296875
vt 0.446875 0.904296875
vt 0.446875 0.90625
vt 0.025 0.9125
vt 0.020312499999999997 0.9125
vt 0.020312499999999997 0.828125
vt 0.025 0.828125
vt 0.015625 0.828125
vt 0.01796875 0.828125
vt 0.01796875 0.9125
vt 0.015625 0.9125
vt 0.008984375 0.49375
vt 0.011328125 0.49375
vt 0.011328125 0.578125
vt 0.008984375 0.578125
vt 0.4328125 0.90625
vt 0.4328125 0.904296875
vt 0.43515625 0.904296875
vt 0.43515625 0.90625
vt 0.0109375 0.828125
vt 0.01328125 0.828125
vt 0.01328125 0.9125
vt 0.0109375 0.9125
vt 0.20546875 0.578125
vt 0.20546875 0.576171875
vt 0.2078125 0.576171875
vt 0.2078125 0.578125
vt 0.2703125 0.921875
vt 0.2703125 0.919921875
vt 0.3546875 0.919921875
vt 0.3546875 0.921875
vt 0.1296875 0.734375
vt 0.1296875 0.732421875
vt 0.2140625 0.732421875
vt 0.2140625 0.734375
vt 0.2078125 0.578125
vt 0.2078125 0.576171875
vt 0.2125 0.576171875
vt 0.2125 0.578125
vt 0.19375 0.578125
vt 0.19375 0.576171875
vt 0.1984375 0.576171875
vt 0.1984375 0.578125
vt 0.015625 0.9125
vt 0.01328125 0.9125
vt 0.01328125 0.828125
vt 0.015625 0.828125
vt 0.3546875 0.90625
vt 0.3546875 0.9140625
vt 0.2703125 0.9140625
vt 0.2703125 0.90625
vt 0.446875 0.890625
vt 0.446875 0.8984375
vt 0.4421875 0.8984375
vt 0.4421875 0.890625
vt 0.4421875 0.890625
vt 0.4421875 0.8984375
vt 0.43984375 0.8984375
vt 0.43984375 0.890625
vt 0.43984375 0.890625
vt 0.43984375 0.8984375
vt 0.4375 0.8984375
vt 0.4375 0.890625
vt 0.4375 0.890625
vt 0.4375 0.8984375
vt 0.43515625 0.8984375
vt 0.43515625 0.890625
vt 0.43515625 0.890625
vt 0.43515625 0.8984375
vt 0.4328125 0.8984375
vt 0.4328125 0.890625
vt 0.4328125 0.890625
vt 0.4328125 0.8984375
vt 0.428125 0.8984375
vt 0.428125 0.890625
vt 0.2140625 0.71875
vt 0.2140625 0.7265625
vt 0.1296875 0.7265625
vt 0.1296875 0.71875
vt 0.2125 0.5625
vt 0.2125 0.5703125
vt 0.2078125 0.5703125
vt 0.2078125 0.5625
vt 0.2078125 0.5625
vt 0.2078125 0.5703125
vt 0.20546875 0.5703125
vt 0.20546875 0.5625
vt 0.20546875 0.5625
vt 0.20546875 0.5703125
vt 0.203125 0.5703125
vt 0.203125 0.5625
vt 0.203125 0.5625
vt 0.203125 0.5703125
vt 0.20078125 0.5703125
vt 0.20078125 0.5625
vt 0.20078125 0.5625
vt 0.20078125 0.5703125
vt 0.1984375 0.5703125
vt 0.1984375 0.5625
vt 0.19843750000000002 0.5625
vt 0.1984375 0.5703125
vt 0.19375 0.5703125
vt 0.19375 0.5625
vt 0.3546875 0.9140625
vt 0.3546875 0.91796875
vt 0.2703125 0.91796875
vt 0.2703125 0.9140625
vt 0.446875 0.8984375
vt 0.446875 0.90234375
vt 0.4421875 0.90234375
vt 0.4421875 0.8984375
vt 0.4421875 0.8984375
vt 0.4421875 0.90234375
vt 0.43984375 0.90234375
vt 0.43984375 0.8984375
vt 0.43984375 0.8984375
vt 0.43984375 0.90234375
vt 0.4375 0.90234375
vt 0.4375 0.8984375
vt 0.4375 0.8984375
vt 0.4375 0.90234375
vt 0.43515625 0.90234375
vt 0.43515625 0.8984375
vt 0.43515625 0.8984375
vt 0.43515625 0.90234375
vt 0.4328125 0.90234375
vt 0.4328125 0.8984375
vt 0.4328125 0.8984375
vt 0.4328125 0.90234375
vt 0.428125 0.90234375
vt 0.428125 0.8984375
vt 0.2140625 0.7265625
vt 0.2140625 0.73046875
vt 0.1296875 0.73046875
vt 0.1296875 0.7265625
vt 0.2125 0.5703125
vt 0.2125 0.57421875
vt 0.2078125 0.57421875
vt 0.2078125 0.5703125
vt 0.2078125 0.5703125
vt 0.2078125 0.57421875
vt 0.20546875 0.57421875
vt 0.20546875 0.5703125
vt 0.20546875 0.5703125
vt 0.20546875 0.57421875
vt 0.203125 0.57421875
vt 0.203125 0.5703125
vt 0.1984375 0.5703125
vt 0.1984375 0.57421875
vt 0.19375 0.57421875
vt 0.19375 0.5703125
vt 0.3546875 0.91796875
vt 0.3546875 0.919921875
vt 0.2703125 0.919921875
vt 0.2703125 0.91796875
vt 0.446875 0.90234375
vt 0.446875 0.904296875
vt 0.4421875 0.904296875
vt 0.4421875 0.90234375
vt 0.4421875 0.90234375
vt 0.4421875 0.904296875
vt 0.43984375 0.904296875
vt 0.43984375 0.90234375
vt 0.43984375 0.90234375
vt 0.43984375 0.904296875
vt 0.4375 0.904296875
vt 0.4375 0.90234375
vt 0.4375 0.90234375
vt 0.4375 0.904296875
vt 0.43515625 0.904296875
vt 0.43515625 0.90234375
vt 0.43515625 0.90234375
vt 0.43515625 0.904296875
vt 0.4328125 0.904296875
vt 0.4328125 0.90234375
vt 0.4328125 0.90234375
vt 0.4328125 0.904296875
vt 0.428125 0.904296875
vt 0.428125 0.90234375
vt 0.2140625 0.73046875
vt 0.2140625 0.732421875
vt 0.1296875 0.732421875
vt 0.1296875 0.73046875
vt 0.2125 0.57421875
vt 0.2125 0.576171875
vt 0.2078125 0.576171875
vt 0.2078125 0.57421875
vt 0.2078125 0.57421875
vt 0.2078125 0.576171875
vt 0.20546875 0.576171875
vt 0.20546875 0.57421875
vt 0.1984375 0.57421875
vt 0.1984375 0.576171875
vt 0.19375 0.576171875
vt 0.19375 0.57421875
vt 0.20546875 0.57421875
vt 0.20546875 0.576171875
vt 0.203125 0.576171875
vt 0.203125 0.57421875
vt 0.4375 0.904296875
vt 0.43984375 0.904296875
vt 0.43984375 0.90625
vt 0.1984375 0.578125
vt 0.1984375 0.576171875
vt 0.20078125 0.576171875
vt 0.20078125 0.578125
vt 0.203125 0.5703125
vt 0.203125 0.57421875
vt 0.20078125 0.57421875
vt 0.20078125 0.5703125
vt 0.20078125 0.5703125
vt 0.20078125 0.57421875
vt 0.1984375 0.57421875
vt 0.1984375 0.5703125
vt 0.20078125 0.57421875
vt 0.20078125 0.576171875
vt 0.1984375 0.576171875
vt 0.1984375 0.57421875
vt 0.203125 0.57421875
vt 0.203125 0.576171875
vt 0.20078125 0.576171875
vt 0.20078125 0.57421875
vt 0.43515625 0.90625
vt 0.43515625 0.904296875
vt 0.4375 0.904296875
vt 0.20078125 0.578125
vt 0.20078125 0.576171875
vt 0.203125 0.576171875
vt 0.203125 0.576171875
vt 0.20546875 0.576171875
vt 0.20546875 0.578125
vt 0.34375 0.796875
vt 0.265625 0.796875
vt 0.265625 0.78125
vt 0.34375 0.78125
vt 0.3125 0.71875
vt 0.3125 0.734375
vt 0.234375 0.734375
vt 0.234375 0.71875
vt 0.359375 0.984375
vt 0.359375 1
vt 0.28125 1
vt 0.28125 0.984375
vn 0 0 1
vn 0 -1 0
vn 0 1 0
vn 0 -1 0
vn 0 0 1
vn 0 1 0
vn 0 1 0
vn 0 0 1
vn 0 -1 0
vn 0 -1 0
vn 0 1 0
vn 0 0 1
vn 0 -1 0
vn 0 0 -1
vn 1 0 0
vn -1 0 0
vn 0 0 -1
vn 0 0 -1
vn 0 -1 0
vn 1 0 0
vn 0 0 1
vn 0 0 1
vn 0 0 1
vn 0 0 1
vn 0 0 1
vn 0 0 1
vn -1 0 0
vn 0 0 -1
vn 0 0 -1
vn 0 0 -1
vn 0 0 -1
vn 0 0 -1
vn 0 0 -1
vn 1 0 0
vn 0 0 1
vn 0 0 1
vn 0 0 1
vn 0 0 1
vn 0 0 1
vn 0 0 1
vn -1 0 0
vn 0 0 -1
vn 0 0 -1
vn 0 0 -1
vn 0 0 -1
vn 1 0 0
vn 0 0 1
vn 0 0 1
vn 0 0 1
vn 0 0 1
vn 0 0 1
vn 0 0 1
vn -1 0 0
vn 0 0 -1
vn 0 0 -1
vn 0 0 -1
vn 0 0 -1
vn 0 0 1
vn 0 0 -1
vn 0 0 -1
vn 0 0 -1
vn 0 0 -1
vn 0 0 -1
vn 0 0 1
vn 0 0 -1
vn 0 0 -1
vn -0.6401843996644798 0.7682212795973759 0
vn 0.6401843996644798 0.7682212795973759 0
vn -0.6401843996644798 0.7682212795973759 0
usemtl m_5477c04c-f4b8-9707-abd6-cd571960704f
f 173/438/112 164/439/112 163/440/112 126/441/112
f 127/442/113 130/443/113 129/444/113 125/445/113
f 174/446/114 128/447/114 173/448/114 126/449/114
f 122/450/115 134/451/115 133/452/115 118/453/115
f 117/454/116 167/455/116 166/456/116 132/457/116
f 117/458/117 132/459/117 131/460/117 121/461/117
f 119/462/118 174/463/118 126/464/118 115/465/118
f 126/466/119 163/467/119 162/468/119 115/469/119
f 116/470/120 127/471/120 125/472/120 120/473/120
f 123/474/121 129/475/121 130/476/121 124/477/121
f 132/478/122 180/479/122 172/480/122 131/481/122
f 132/482/123 166/483/123 165/484/123 180/485/123
f 134/486/124 136/487/124 135/488/124 133/489/124
f 172/490/125 170/491/125 169/492/125 131/493/125
f 115/494/126 162/495/126 161/496/126 119/497/126
f 121/498/127 168/499/127 167/500/127 117/501/127
f 131/502/128 169/503/128 168/504/128 121/505/128
f 119/506/129 161/507/129 171/508/129 174/509/129
f 124/510/130 135/511/130 136/512/130 123/513/130
f 120/514/131 137/515/131 138/516/131 116/517/131
f 116/518/132 138/519/132 139/520/132 127/521/132
f 127/522/133 139/523/133 140/524/133 130/525/133
f 130/526/134 140/527/134 141/528/134 124/529/134
f 124/530/135 141/531/135 142/532/135 135/533/135
f 135/534/136 142/535/136 143/536/136 133/537/136
f 133/538/137 143/539/137 144/540/137 118/541/137
f 118/542/138 144/543/138 145/544/138 122/545/138
f 122/546/139 145/547/139 146/548/139 134/549/139
f 134/550/140 146/551/140 147/552/140 136/553/140
f 136/554/141 147/555/141 148/556/141 123/557/141
f 123/558/142 148/559/142 175/560/142 129/561/142
f 129/562/143 175/563/143 149/564/143 125/565/143
f 125/566/144 149/567/144 137/568/144 120/569/144
f 137/570/145 150/571/145 151/572/145 138/573/145
f 138/574/146 151/575/146 152/576/146 139/577/146
f 139/578/147 152/579/147 153/580/147 140/581/147
f 140/582/148 153/583/148 154/584/148 141/585/148
f 141/586/149 154/587/149 155/588/149 142/589/149
f 142/590/150 155/591/150 156/592/150 143/593/150
f 143/594/151 156/595/151 157/596/151 144/597/151
f 144/598/152 157/599/152 158/600/152 145/601/152
f 145/602/153 158/603/153 159/604/153 146/605/153
f 146/606/154 159/607/154 160/608/154 147/609/154
f 147/610/155 160/611/155 176/612/155 148/613/155
f 149/614/156 178/615/156 150/616/156 137/617/156
f 150/618/157 161/619/157 162/620/157 151/621/157
f 151/622/158 162/623/158 163/624/158 152/625/158
f 152/626/159 163/627/159 164/628/159 153/629/159
f 153/630/160 164/631/160 182/632/160 154/633/160
f 154/634/161 182/635/161 165/636/161 155/637/161
f 155/638/162 165/639/162 166/640/162 156/641/162
f 156/642/163 166/643/163 167/644/163 157/645/163
f 157/646/164 167/647/164 168/648/164 158/649/164
f 158/650/165 168/651/165 169/652/165 159/653/165
f 159/654/166 169/655/166 170/656/166 160/657/166
f 178/658/167 171/659/167 161/660/167 150/661/167
f 160/662/168 170/663/168 181/664/168 176/665/168
f 182/666/169 164/667/169 173/668/169
f 174/669/170 171/670/170 179/671/170 128/672/170
f 148/673/171 176/674/171 177/675/171 175/676/171
f 175/677/172 177/678/172 178/679/172 149/680/172
f 177/681/173 179/682/173 171/683/173 178/684/173
f 176/685/174 181/686/174 179/687/174 177/688/174
f 180/689/175 165/690/175 182/691/175
f 128/692/176 179/693/176 181/694/176
f 181/695/177 170/696/177 172/697/177
f 173/698/178 128/699/178 181/700/178 182/701/178
f 181/702/179 172/703/179 180/704/179 182/705/179
f 182/706/180 173/707/180 128/708/180 181/709/180
o cuboid
v 0.037500000000000006 0.3437499999999999 0.10624999999999948
v -0.03749999999999999 0.3437499999999999 0.10624999999999948
v 0.009375000000000003 0.3437499999999999 0.10624999999999948
v -0.018749999999999996 0.3437499999999999 0.10624999999999948
v 0.037500000000000006 0.28749999999999987 0.10624999999999948
v -0.03749999999999999 0.28749999999999987 0.10624999999999948
v -0.018749999999999996 0.28749999999999987 0.10624999999999948
v -0.009374999999999996 0.28749999999999987 0.10624999999999948
v 3.469446951953614e-18 0.28749999999999987 0.10624999999999948
v 0.018750000000000003 0.28749999999999987 0.10624999999999948
v 0.037500000000000006 0.33437499999999987 0.10624999999999948
v -0.03749999999999999 0.33437499999999987 0.10624999999999948
v -0.018749999999999996 0.33437499999999987 0.10624999999999948
v -0.009374999999999996 0.33437499999999987 0.10624999999999948
v 0.037500000000000006 0.34218749999999987 0.10624999999999948
v -0.03749999999999999 0.34218749999999987 0.10624999999999948
v -0.018749999999999996 0.34218749999999987 0.10624999999999948
v -0.009374999999999996 0.34218749999999987 0.10624999999999948
v 0.018750000000000003 0.34218749999999987 0.10624999999999948
v -0.009374999999999996 0.3437499999999999 0.10624999999999948
v 0.018750000000000003 0.3437499999999999 0.10624999999999948
v 0.009375000000000003 0.28749999999999987 0.10624999999999948
v 3.469446951953614e-18 0.33437499999999987 0.10624999999999948
v 0.009375000000000003 0.33437499999999987 0.10624999999999948
v 0.018750000000000003 0.33437499999999987 0.10624999999999948
v 0.009375000000000003 0.34218749999999987 0.10624999999999948
v 3.469446951953614e-18 0.34218749999999987 0.10624999999999948
v -0.03749999999999999 0.25624999999999987 0.1562499999999995
v -0.03749999999999999 0.28749999999999987 0.1562499999999995
v -0.03749999999999999 0.33437499999999987 0.1562499999999995
v -0.03749999999999999 0.34218749999999987 0.1562499999999995
v -0.03749999999999999 0.3437499999999999 0.1562499999999995
v -0.018749999999999996 0.3437499999999999 0.1562499999999995
v -0.009374999999999996 0.3437499999999999 0.1562499999999995
v 3.469446951953614e-18 0.34218749999999987 0.1562499999999995
v 0.009375000000000003 0.3437499999999999 0.1562499999999995
v 0.018750000000000003 0.3437499999999999 0.1562499999999995
v 0.037500000000000006 0.3437499999999999 0.1562499999999995
v 0.037500000000000006 0.34218749999999987 0.1562499999999995
v 0.037500000000000006 0.33437499999999987 0.1562499999999995
v 0.037500000000000006 0.28749999999999987 0.1562499999999995
v 0.037500000000000006 0.25624999999999987 0.1562499999999995
v 0.018750000000000003 0.25624999999999987 0.1562499999999995
v 0.009375000000000003 0.25624999999999987 0.1562499999999995
v 3.469446951953614e-18 0.25624999999999987 0.1562499999999995
v -0.009374999999999996 0.25624999999999987 0.1562499999999995
v -0.018749999999999996 0.25624999999999987 0.1562499999999995
v -0.03749999999999999 0.28749999999999987 0.25624999999999953
v -0.03749999999999999 0.25624999999999987 0.25624999999999953
v -0.018749999999999996 0.25624999999999987 0.25624999999999953
v -0.009374999999999996 0.25624999999999987 0.25624999999999953
v 3.469446951953614e-18 0.25624999999999987 0.25624999999999953
v 0.009375000000000003 0.25624999999999987 0.25624999999999953
v 0.018750000000000003 0.25624999999999987 0.25624999999999953
v 0.037500000000000006 0.25624999999999987 0.25624999999999953
v 0.037500000000000006 0.28749999999999987 0.25624999999999953
v 0.037500000000000006 0.33437499999999987 0.25624999999999953
v 0.037500000000000006 0.34218749999999987 0.25624999999999953
v 0.037500000000000006 0.34999999999999987 0.25624999999999953
v 0.018750000000000003 0.34999999999999987 0.25624999999999953
v 0.009375000000000003 0.34999999999999987 0.25624999999999953
v 3.469446951953614e-18 0.34218749999999987 0.25624999999999953
v -0.009374999999999996 0.34999999999999987 0.25624999999999953
v -0.018749999999999996 0.34999999999999987 0.25624999999999953
v -0.03749999999999999 0.34999999999999987 0.25624999999999953
v -0.03749999999999999 0.34218749999999987 0.25624999999999953
v -0.03749999999999999 0.33437499999999987 0.25624999999999953
v -0.03749999999999999 0.25624999999999987 0.20624999999999954
v -0.03749999999999999 0.28749999999999987 0.20624999999999954
v -0.03749999999999999 0.33437499999999987 0.20624999999999954
v -0.03749999999999999 0.34218749999999987 0.20624999999999954
v -0.03749999999999999 0.34999999999999987 0.20624999999999954
v -0.018749999999999996 0.34999999999999987 0.20624999999999954
v -0.009374999999999996 0.34999999999999987 0.20624999999999954
v 3.469446951953614e-18 0.34218749999999987 0.20624999999999954
v 0.009375000000000003 0.34999999999999987 0.20624999999999954
v 0.018750000000000003 0.34999999999999987 0.20624999999999954
v 0.037500000000000006 0.34999999999999987 0.20624999999999954
v 0.037500000000000006 0.34218749999999987 0.20624999999999954
v 0.037500000000000006 0.33437499999999987 0.20624999999999954
v 0.037500000000000006 0.28749999999999987 0.20624999999999954
v 0.037500000000000006 0.25624999999999987 0.20624999999999954
v 0.018750000000000003 0.25624999999999987 0.20624999999999954
v 0.009375000000000003 0.25624999999999987 0.20624999999999954
v 3.469446951953614e-18 0.25624999999999987 0.20624999999999954
v -0.009374999999999996 0.25624999999999987 0.20624999999999954
v -0.018749999999999996 0.25624999999999987 0.20624999999999954
vt 0.47109375 1
vt 0.47109375 0.999609375
vt 0.4734375 0.999609375
vt 0.4734375 1
vt 0.4734375 1
vt 0.4734375 0.999609375
vt 0.478125 0.999609375
vt 0.478125 1
vt 0.459375 1
vt 0.459375 0.999609375
vt 0.4640625 0.999609375
vt 0.4640625 1
vt 0.478125 0.9859375
vt 0.478125 0.99765625
vt 0.4734375 0.99765625
vt 0.4734375 0.9859375
vt 0.4734375 0.9859375
vt 0.4734375 0.99765625
vt 0.47109375 0.99765625
vt 0.47109375 0.9859375
vt 0.47109375 0.9859375
vt 0.47109375 0.99765625
vt 0.46875 0.99765625
vt 0.46875 0.9859375
vt 0.4640625 0.9859375
vt 0.4640625 0.99765625
vt 0.459375 0.99765625
vt 0.45937500000000003 0.9859375
vt 0.478125 0.99765625
vt 0.478125 0.999609375
vt 0.4734375 0.999609375
vt 0.4734375 0.99765625
vt 0.4734375 0.99765625
vt 0.4734375 0.999609375
vt 0.47109375 0.999609375
vt 0.47109375 0.99765625
vt 0.4640625 0.99765625
vt 0.4640625 0.999609375
vt 0.459375 0.999609375
vt 0.459375 0.99765625
vt 0.47109375 0.99765625
vt 0.47109375 0.999609375
vt 0.46875 0.999609375
vt 0.46875 0.99765625
vt 0.4640625 1
vt 0.4640625 0.999609375
vt 0.46640625 0.999609375
vt 0.46640625 1
vt 0.46875 0.9859375
vt 0.46875 0.99765625
vt 0.46640625 0.99765625
vt 0.46640625 0.9859375
vt 0.46640625 0.9859375
vt 0.46640625 0.99765625
vt 0.4640625 0.99765625
vt 0.4640625 0.9859375
vt 0.46640625 0.99765625
vt 0.46640625 0.999609375
vt 0.4640625 0.999609375
vt 0.4640625 0.99765625
vt 0.46875 0.99765625
vt 0.46875 0.999609375
vt 0.46640625 0.999609375
vt 0.46640625 0.99765625
vt 0.46640625 1
vt 0.46640625 0.999609375
vt 0.46875 0.999609375
vt 0.46875 0.999609375
vt 0.47109375 0.999609375
vt 0.47109375 1
vt 0.4359375 0.765625
vt 0.4234375 0.765625
vt 0.4234375 0.7578125
vt 0.4359375 0.7578125
vt 0.4359375 0.77734375
vt 0.4234375 0.77734375
vt 0.4234375 0.765625
vt 0.4359375 0.765625
vt 0.4359375 0.779296875
vt 0.4234375 0.779296875
vt 0.4234375 0.77734375
vt 0.4359375 0.77734375
vt 0.4359375 0.78125
vt 0.4234375 0.7796875
vt 0.4234375 0.779296875
vt 0.4359375 0.779296875
vt 0.41689957096011354 0.6311068979470259
vt 0.41689957096011354 0.6437037729470259
vt 0.41221207096011353 0.6437037729470259
vt 0.41221207096011353 0.6311068979470259
vt 0.4192433209601135 0.6311068979470259
vt 0.4192433209601135 0.6437037729470259
vt 0.41689957096011354 0.6437037729470259
vt 0.4168995709601135 0.6311068979470259
vt 0.42161988346011353 0.6312037729470259
vt 0.42161988346011353 0.6437037729470259
vt 0.4192433209601135 0.6437037729470259
vt 0.41898550846011356 0.6312037729470259
vt 0.42425319152893276 0.6310149361979098
vt 0.42399625846553357 0.6436095361828176
vt 0.42161988346011353 0.6436097278592912
vt 0.42161988346011353 0.6312037729470259
vt 0.4265964539813665 0.6310627393517196
vt 0.4263395279640232 0.643656993946067
vt 0.4239962655115894 0.6436091907922571
vt 0.42425319152893276 0.6310149361979098
vt 0.431282978886234 0.6311583456593394
vt 0.4310260528688907 0.6437526002536866
vt 0.4263395279640232 0.643656993946067
vt 0.4265964539813665 0.6310627393517196
vt 0.4234375 0.701171875
vt 0.4359375 0.701171875
vt 0.4359375 0.7015625
vt 0.4234375 0.703125
vt 0.4234375 0.69921875
vt 0.4359375 0.69921875
vt 0.4359375 0.701171875
vt 0.4234375 0.701171875
vt 0.4234375 0.6875
vt 0.4359375 0.6875
vt 0.4359375 0.69921875
vt 0.4234375 0.69921875
vt 0.4234375 0.6796875
vt 0.4359375 0.6796875
vt 0.4359375 0.6875
vt 0.4234375 0.6875
vt 0.0515625 0.559375
vt 0.0515625 0.546875
vt 0.05625 0.546875
vt 0.05625 0.559375
vt 0.04921875 0.559375
vt 0.04921875 0.546875
vt 0.0515625 0.546875
vt 0.0515625 0.559375
vt 0.046875 0.559375
vt 0.046875 0.546875
vt 0.04921875 0.546875
vt 0.04921875 0.559375
vt 0.04453125 0.559375
vt 0.04453125 0.546875
vt 0.046875 0.546875
vt 0.046875 0.559375
vt 0.0421875 0.559375
vt 0.0421875 0.546875
vt 0.04453125 0.546875
vt 0.04453125 0.559375
vt 0.0375 0.559375
vt 0.0375 0.546875
vt 0.0421875 0.546875
vt 0.0421875 0.559375
vt 0.484375 0.5
vt 0.4717777795375763 0.5
vt 0.471729119327154 0.4976241232382451
vt 0.4841324935490194 0.4973710912293581
vt 0.4109375 0.765625
vt 0.4234375 0.765625
vt 0.4234375 0.77734375
vt 0.4109375 0.77734375
vt 0.4109375 0.77734375
vt 0.4234375 0.77734375
vt 0.4234375 0.779296875
vt 0.4109375 0.779296875
vt 0.4109375 0.779296875
vt 0.4234375 0.779296875
vt 0.4234375 0.7796875
vt 0.4109375 0.7796875
vt 0.41221207096011353 0.6562037729470259
vt 0.41221207096011353 0.6437037729470259
vt 0.41689957096011354 0.6437037729470259
vt 0.41689957096011354 0.6562037729470259
vt 0.41689957096011354 0.6562037729470259
vt 0.41689957096011354 0.6437037729470259
vt 0.4192433209601135 0.6437037729470259
vt 0.4192433209601135 0.6562037729470259
vt 0.4192433209601135 0.6562037729470259
vt 0.4192433209601135 0.6437037729470259
vt 0.42161988346011353 0.6437037729470259
vt 0.42161988346011353 0.6562037729470259
vt 0.4213652472311691 0.6560581181406073
vt 0.4216201973848216 0.643560718394294
vt 0.4239962655115894 0.6436091907922572
vt 0.4237413153579369 0.6561065905385705
vt 0.4237413153579369 0.6561065905385705
vt 0.4239962655115894 0.6436091907922572
vt 0.4263395279640232 0.643656993946067
vt 0.4260845778103707 0.6561543936923804
vt 0.4260845778103707 0.6561543936923804
vt 0.4263395279640232 0.643656993946067
vt 0.4310260528688907 0.6437526002536866
vt 0.43077110271523816 0.65625
vt 0.4484375 0.7015625
vt 0.4359375 0.7015625
vt 0.4359375 0.701171875
vt 0.4484375 0.701171875
vt 0.4484375 0.701171875
vt 0.4359375 0.701171875
vt 0.4359375 0.69921875
vt 0.4484375 0.69921875
vt 0.4484375 0.69921875
vt 0.4359375 0.69921875
vt 0.4359375 0.6875
vt 0.4484375 0.6875
vt 0.1875 0.53125
vt 0.203125 0.53125
vt 0.203125 0.546875
vt 0.1875 0.546875
vt 0.4234375 0.7578125
vt 0.4234375 0.765625
vt 0.4109375 0.765625
vt 0.4484375 0.6875
vt 0.4359375 0.6875
vt 0.4359375 0.6796875
vt 0.234375 0.546875
vt 0.21875 0.546875
vt 0.21875 0.53125
vt 0.234375 0.53125
vt 0.0515625 0.559375
vt 0.0515625 0.571875
vt 0.04921875 0.571875
vt 0.04921875 0.559375
vt 0.42425319152893276 0.6310149361979098
vt 0.42450814168258527 0.6185175364515965
vt 0.426851404135019 0.6185653396054064
vt 0.4265964539813665 0.6310627393517196
vt 0.41221207096011353 0.6311068979470259
vt 0.4122120709601135 0.618606897947026
vt 0.4168995709601135 0.618606897947026
vt 0.41689957096011354 0.6311068979470259
vt 0.4265964539813665 0.6310627393517196
vt 0.426851404135019 0.6185653396054064
vt 0.4315379290398865 0.6186609459130261
vt 0.431282978886234 0.6311583456593394
vt 0.05625 0.559375
vt 0.05625 0.571875
vt 0.0515625 0.571875
vt 0.0515625 0.559375
vt 0.04921875 0.559375
vt 0.04921875 0.571875
vt 0.046875 0.571875
vt 0.046875 0.559375
vt 0.4168995709601135 0.6311068979470259
vt 0.4168995709601135 0.618606897947026
vt 0.41924332096011346 0.618606897947026
vt 0.4192433209601135 0.6311068979470259
vt 0.04453125 0.559375
vt 0.04453125 0.571875
vt 0.0421875 0.571875
vt 0.0421875 0.559375
vt 0.4234375 0.703125
vt 0.4109375 0.703125
vt 0.4109375 0.701171875
vt 0.4234375 0.701171875
vt 0.4359375 0.779296875
vt 0.4484375 0.779296875
vt 0.4484375 0.78125
vt 0.4359375 0.78125
vt 0.046875 0.559375
vt 0.046875 0.571875
vt 0.04453125 0.571875
vt 0.04453125 0.559375
vt 0.4359375 0.7578125
vt 0.4484375 0.7578125
vt 0.4484375 0.765625
vt 0.4359375 0.765625
vt 0.4234375 0.69921875
vt 0.4109375 0.69921875
vt 0.4109375 0.6875
vt 0.4234375 0.6875
vt 0.4359375 0.765625
vt 0.4484375 0.765625
vt 0.4484375 0.77734375
vt 0.4359375 0.77734375
vt 0.4234375 0.701171875
vt 0.4109375 0.701171875
vt 0.4109375 0.69921875
vt 0.4234375 0.69921875
vt 0.4359375 0.77734375
vt 0.4484375 0.77734375
vt 0.4484375 0.779296875
vt 0.4359375 0.779296875
vt 0.4212110036410552 0.6312330940647198
vt 0.4203169140229816 0.6187651109176806
vt 0.4233591019108592 0.6185469530508707
vt 0.42425319152893276 0.6310149361979098
vt 0.41856988346011353 0.6312037729470259
vt 0.41856988346011353 0.6187037729470259
vt 0.42161988346011353 0.6187037729470259
vt 0.42161988346011353 0.6312037729470259
vt 0.34375 0.53125
vt 0.359375 0.53125
vt 0.359375 0.546875
vt 0.34375 0.546875
vt 0.4234375 0.6875
vt 0.4109375 0.6875
vt 0.4109375 0.6796875
vt 0.4234375 0.6796875
vt 0.0421875 0.559375
vt 0.0421875 0.571875
vt 0.0375 0.571875
vt 0.0375 0.559375
vt 0.446875 0.951171875
vt 0.428125 0.951171875
vt 0.428125 0.939453125
vt 0.446875 0.939453125
vt 0.446875 0.953125
vt 0.428125 0.953125
vt 0.428125 0.951171875
vt 0.446875 0.951171875
vt 0.421875 0.5625
vt 0.40859375 0.5625
vt 0.40625 0.546875
vt 0.421875 0.546875
vt 0.378125 0.5
vt 0.3875 0.5
vt 0.38515625 0.515625
vt 0.378125 0.515625
vt 0.446875 0.939453125
vt 0.428125 0.939453125
vt 0.428125 0.931640625
vt 0.446875 0.931640625
vn 0 0 -1
vn 0 0 -1
vn 0 0 -1
vn 0 0 -1
vn 0 0 -1
vn 0 0 -1
vn 0 0 -1
vn 0 0 -1
vn 0 0 -1
vn 0 0 -1
vn 0 0 -1
vn 0 0 -1
vn 0 0 -1
vn 0 0 -1
vn 0 0 -1
vn 0 0 -1
vn 0 0 -1
vn 0 0 -1
vn -1 0 0
vn -1 0 0
vn -1 0 0
vn -1 0 0
vn 0 0.9922778767136679 -0.12403473458920834
vn 0 0.9922778767136679 -0.12403473458920834
vn 0.16439898730535746 0.9863939238321439 0
vn -0.16316340328960097 0.9789804197376051 -0.1223725524672005
vn 0 0.9922778767136679 -0.12403473458920834
vn 0 0.9922778767136679 -0.12403473458920834
vn 1 0 0
vn 1 0 0
vn 1 0 0
vn 1 0 0
vn 0 -1 0
vn 0 -1 0
vn 0 -1 0
vn 0 -1 0
vn 0 -1 0
vn 0 -1 0
vn -0.16316340328960097 0.9789804197376051 -0.1223725524672005
vn -1 0 0
vn -1 0 0
vn -1 0 0
vn 0 1 0
vn 0 1 0
vn 0.16439898730535746 0.9863939238321439 0
vn -0.16439898730535746 0.9863939238321439 0
vn 0 1 0
vn 0 1 0
vn 1 0 0
vn 1 0 0
vn 1 0 0
vn -0.16439898730535746 0.9863939238321439 0
vn -1 0 0
vn 1 0 0
vn 0 -0.8479983040050881 -0.5299989400031799
vn 0 -1 0
vn 0 1 0
vn 0 1 0
vn 0 1 0
vn 0 -1 0
vn 0 -1 0
vn 0 1 0
vn 0 -1 0
vn 1 0 0
vn -1 0 0
vn 0 -1 0
vn -1 0 0
vn 1 0 0
vn -1 0 0
vn 1 0 0
vn -1 0 0
vn -0.6401843996644799 0.7682212795973759 0
vn 0.6401843996644799 0.7682212795973759 0
vn -0.6401843996644799 0.7682212795973759 0
vn 1 0 0
vn 0 -1 0
vn 0 0 1
vn 0 0 1
vn 0 0 1
vn 0 0 1
vn 0 0 1
usemtl m_5477c04c-f4b8-9707-abd6-cd571960704f
f 202/710/181 200/711/181 199/712/181 186/713/181
f 186/714/182 199/715/182 198/716/182 184/717/182
f 183/718/183 197/719/183 201/720/183 203/721/183
f 188/722/184 194/723/184 195/724/184 189/725/184
f 189/726/185 195/727/185 196/728/185 190/729/185
f 190/730/186 196/731/186 205/732/186 191/733/186
f 192/734/187 207/735/187 193/736/187 187/737/187
f 194/738/188 198/739/188 199/740/188 195/741/188
f 195/742/189 199/743/189 200/744/189 196/745/189
f 207/746/190 201/747/190 197/748/190 193/749/190
f 196/750/191 200/751/191 209/752/191 205/753/191
f 203/754/192 201/755/192 208/756/192 185/757/192
f 191/758/193 205/759/193 206/760/193 204/761/193
f 204/762/194 206/763/194 207/764/194 192/765/194
f 206/766/195 208/767/195 201/768/195 207/769/195
f 205/770/196 209/771/196 208/772/196 206/773/196
f 185/774/197 208/775/197 209/776/197
f 209/777/198 200/778/198 202/779/198
f 251/780/199 211/781/199 210/782/199 250/783/199
f 252/784/200 212/785/200 211/786/200 251/787/200
f 253/788/201 213/789/201 212/790/201 252/791/201
f 254/792/202 214/793/202 213/794/202 253/795/202
f 255/796/203 215/797/203 214/798/203 254/799/203
f 256/800/204 216/801/204 215/802/204 255/803/204
f 257/804/205 217/805/205 216/806/205 256/807/205
f 258/808/206 218/809/206 217/810/206 257/811/206
f 259/812/207 219/813/207 218/814/207 258/815/207
f 260/816/208 220/817/208 219/818/208 259/819/208
f 261/820/209 221/821/209 220/822/209 260/823/209
f 262/824/210 222/825/210 221/826/210 261/827/210
f 263/828/211 223/829/211 222/830/211 262/831/211
f 264/832/212 224/833/212 223/834/212 263/835/212
f 265/836/213 225/837/213 224/838/213 264/839/213
f 266/840/214 226/841/214 225/842/214 265/843/214
f 267/844/215 227/845/215 226/846/215 266/847/215
f 268/848/216 228/849/216 227/850/216 267/851/216
f 269/852/217 229/853/217 228/854/217 268/855/217
f 250/856/218 210/857/218 229/858/218 269/859/218
f 258/860/219 218/861/219 217/862/219 257/863/219
f 188/864/220 211/865/220 212/866/220 194/867/220
f 194/868/221 212/869/221 213/870/221 198/871/221
f 198/872/222 213/873/222 214/874/222 184/875/222
f 184/876/223 214/877/223 215/878/223 186/879/223
f 186/880/224 215/881/224 216/882/224 202/883/224
f 202/884/225 216/885/225 217/886/225 209/887/225
f 209/888/226 217/889/226 218/890/226 185/891/226
f 185/892/227 218/893/227 219/894/227 203/895/227
f 203/896/228 219/897/228 220/898/228 183/899/228
f 183/900/229 220/901/229 221/902/229 197/903/229
f 197/904/230 221/905/230 222/906/230 193/907/230
f 193/908/231 222/909/231 223/910/231 187/911/231
f 209/912/232 217/913/232 218/914/232 185/915/232
f 210/916/233 211/917/233 188/918/233
f 187/919/234 223/920/234 224/921/234
f 188/922/235 187/923/235 224/924/235 210/925/235
f 265/926/236 236/927/236 235/928/236 266/929/236
f 258/930/237 243/931/237 242/932/237 259/933/237
f 254/934/238 247/935/238 246/936/238 255/937/238
f 259/938/239 242/939/239 241/940/239 260/941/239
f 264/942/240 237/943/240 236/944/240 265/945/240
f 266/946/241 235/947/241 234/948/241 267/949/241
f 255/950/242 246/951/242 245/952/242 256/953/242
f 268/954/243 233/955/243 232/956/243 269/957/243
f 260/958/244 241/959/244 240/960/244 261/961/244
f 253/962/245 248/963/245 247/964/245 254/965/245
f 267/966/246 234/967/246 233/968/246 268/969/246
f 250/970/247 231/971/247 230/972/247 251/973/247
f 262/974/248 239/975/248 238/976/248 263/977/248
f 251/978/249 230/979/249 249/980/249 252/981/249
f 261/982/250 240/983/250 239/984/250 262/985/250
f 252/986/251 249/987/251 248/988/251 253/989/251
f 257/990/252 244/991/252 243/992/252 258/993/252
f 256/994/253 245/995/253 244/996/253 257/997/253
f 257/998/254 244/999/254 243/1000/254 258/1001/254
f 263/1002/255 238/1003/255 237/1004/255 264/1005/255
f 269/1006/256 232/1007/256 231/1008/256 250/1009/256
f 239/1010/257 249/1011/257 230/1012/257 238/1013/257
f 240/1014/258 248/1015/258 249/1016/258 239/1017/258
f 241/1018/259 243/1019/259 244/1020/259 240/1021/259
f 248/1022/260 244/1023/260 245/1024/260 247/1025/260
f 238/1026/261 230/1027/261 231/1028/261 237/1029/261
o cylinder
v 2.4286128663675298e-18 0.24375 -0.006250000000000001
v 2.4286128663675298e-18 0.28125 -0.006250000000000001
v 0.020096189432334204 0.24375 0.06875000000000002
v 0.020096189432334204 0.28125 0.06875000000000002
v 0.0549038105676658 0.24375 0.04865381056766583
v 0.0549038105676658 0.28125 0.04865381056766583
v 0.07500000000000001 0.24375 0.01384618943233421
v 0.07500000000000001 0.28125 0.01384618943233421
v 0.07500000000000001 0.24375 -0.026346189432334216
v 0.07500000000000001 0.28125 -0.026346189432334216
v 0.0549038105676658 0.24375 -0.06115381056766583
v 0.0549038105676658 0.28125 -0.06115381056766583
v 0.02009618943233423 0.24375 -0.08125000000000002
v 0.02009618943233423 0.28125 -0.08125000000000002
v -0.020096189432334176 0.24375 -0.08125000000000003
v -0.020096189432334176 0.28125 -0.08125000000000003
v -0.0549038105676658 0.24375 -0.06115381056766584
v -0.0549038105676658 0.28125 -0.06115381056766584
v -0.075 0.24375 -0.026346189432334195
v -0.075 0.28125 -0.026346189432334195
v -0.07500000000000001 0.24375 0.013846189432334175
v -0.07500000000000001 0.28125 0.013846189432334175
v -0.05490381056766583 0.24375 0.04865381056766583
v -0.05490381056766583 0.28125 0.04865381056766583
v -0.020096189432334193 0.24375 0.06875000000000002
v -0.020096189432334193 0.28125 0.06875000000000002
vt 0.0371640625 0.7356015625
vt 0.028460937500000002 0.740625
vt 0.0234375 0.721875
vt 0.4581484375 0.865625
vt 0.4681953125 0.865625
vt 0.4681953125 0.875
vt 0.4581484375 0.875
vt 0.0909609375 0.7125
vt 0.0996640625 0.7175234375
vt 0.0859375 0.73125
vt 0.0421875 0.7268984375
vt 0.0371640625 0.7356015625
vt 0.0234375 0.721875
vt 0.4224296875 0.725
vt 0.4324765625 0.725
vt 0.4324765625 0.734375
vt 0.4224296875 0.734375
vt 0.0996640625 0.7175234375
vt 0.1046875 0.7262265625
vt 0.0859375 0.73125
vt 0.0421875 0.7168515625
vt 0.0421875 0.7268984375
vt 0.0234375 0.721875
vt 0.4324765625 0.725
vt 0.4425234375 0.725
vt 0.4425234375 0.734375
vt 0.4324765625 0.734375
vt 0.1046875 0.7262265625
vt 0.1046875 0.7362734375
vt 0.0859375 0.73125
vt 0.0371640625 0.7081484375
vt 0.0421875 0.7168515625
vt 0.0234375 0.721875
vt 0.4425234375 0.725
vt 0.4525703125 0.725
vt 0.4525703125 0.734375
vt 0.4425234375 0.734375
vt 0.1046875 0.7362734375
vt 0.0996640625 0.7449765625
vt 0.0859375 0.73125
vt 0.028460937500000002 0.703125
vt 0.0371640625 0.7081484375
vt 0.0234375 0.721875
vt 0.4380546875 0.803125
vt 0.4481015625 0.803125
vt 0.4481015625 0.8125
vt 0.4380546875 0.8125
vt 0.0996640625 0.7449765625
vt 0.0909609375 0.75
vt 0.0859375 0.73125
vt 0.0184140625 0.703125
vt 0.028460937500000002 0.703125
vt 0.0234375 0.721875
vt 0.4481015625 0.803125
vt 0.4581484375 0.803125
vt 0.4581484375 0.8125
vt 0.4481015625 0.8125
vt 0.0909609375 0.75
vt 0.0809140625 0.75
vt 0.0859375 0.73125
vt 0.0097109375 0.7081484375
vt 0.0184140625 0.703125
vt 0.0234375 0.721875
vt 0.4581484375 0.803125
vt 0.4681953125 0.803125
vt 0.4681953125 0.8125
vt 0.4581484375 0.8125
vt 0.0809140625 0.75
vt 0.0722109375 0.7449765625
vt 0.0859375 0.73125
vt 0.004687500000000001 0.7168515625
vt 0.0097109375 0.7081484375
vt 0.0234375 0.721875
vt 0.4380546875 0.834375
vt 0.4481015625 0.834375
vt 0.4481015625 0.84375
vt 0.4380546875 0.84375
vt 0.0722109375 0.7449765625
vt 0.0671875 0.7362734375
vt 0.0859375 0.73125
vt 0.004687500000000001 0.7268984375
vt 0.004687500000000001 0.7168515625
vt 0.0234375 0.721875
vt 0.4481015625 0.834375
vt 0.4581484375 0.834375
vt 0.4581484375 0.84375
vt 0.4481015625 0.84375
vt 0.0671875 0.7362734375
vt 0.0671875 0.7262265625
vt 0.0859375 0.73125
vt 0.0097109375 0.7356015625
vt 0.004687500000000001 0.7268984375
vt 0.0234375 0.721875
vt 0.4581484375 0.834375
vt 0.4681953125 0.834375
vt 0.4681953125 0.84375
vt 0.4581484375 0.84375
vt 0.0671875 0.7262265625
vt 0.0722109375 0.7175234375
vt 0.0859375 0.73125
vt 0.0184140625 0.740625
vt 0.0097109375 0.7356015625
vt 0.0234375 0.721875
vt 0.4380546875 0.865625
vt 0.4481015625 0.865625
vt 0.4481015625 0.875
vt 0.4380546875 0.875
vt 0.0722109375 0.7175234375
vt 0.0809140625 0.7125
vt 0.0859375 0.73125
vt 0.028460937500000002 0.740625
vt 0.0184140625 0.740625
vt 0.0234375 0.721875
vt 0.4481015625 0.865625
vt 0.4581484375 0.865625
vt 0.4581484375 0.875
vt 0.4481015625 0.875
vt 0.0809140625 0.7125
vt 0.0909609375 0.7125
vt 0.0859375 0.73125
vn 0 -1 0
vn 0.49999999999999983 0 0.8660254037844388
vn 0 1 0
vn 0 -1 0
vn 0.8660254037844388 0 0.49999999999999994
vn 0 1 0
vn 0 -1 0
vn 1 0 0
vn 0 1 0
vn 0 -1 0
vn 0.8660254037844388 0 -0.5
vn 0 1 0
vn 0 -1 0
vn 0.4999999999999998 0 -0.8660254037844388
vn 0 1 0
vn 0 -1 0
vn 3.452840613028231e-16 0 -1
vn 0 1 0
vn 0 -1 0
vn -0.49999999999999933 0 -0.866025403784439
vn 0 1 0
vn 0 -1 0
vn -0.8660254037844392 0 -0.49999999999999933
vn 0 1 0
vn 0 -1 0
vn -1 0 -3.452840613028234e-16
vn 0 1 0
vn 0 -1 0
vn -0.8660254037844393 0 0.499999999999999
vn 0 1 0
vn 0 -1 0
vn -0.4999999999999995 0 0.8660254037844389
vn 0 1 0
vn 0 -1 0
vn 0 0 1
vn 0 1 0
usemtl m_5477c04c-f4b8-9707-abd6-cd571960704f
f 274/1030/262 272/1031/262 270/1032/262
f 272/1033/263 274/1034/263 275/1035/263 273/1036/263
f 273/1037/264 275/1038/264 271/1039/264
f 276/1040/265 274/1041/265 270/1042/265
f 274/1043/266 276/1044/266 277/1045/266 275/1046/266
f 275/1047/267 277/1048/267 271/1049/267
f 278/1050/268 276/1051/268 270/1052/268
f 276/1053/269 278/1054/269 279/1055/269 277/1056/269
f 277/1057/270 279/1058/270 271/1059/270
f 280/1060/271 278/1061/271 270/1062/271
f 278/1063/272 280/1064/272 281/1065/272 279/1066/272
f 279/1067/273 281/1068/273 271/1069/273
f 282/1070/274 280/1071/274 270/1072/274
f 280/1073/275 282/1074/275 283/1075/275 281/1076/275
f 281/1077/276 283/1078/276 271/1079/276
f 284/1080/277 282/1081/277 270/1082/277
f 282/1083/278 284/1084/278 285/1085/278 283/1086/278
f 283/1087/279 285/1088/279 271/1089/279
f 286/1090/280 284/1091/280 270/1092/280
f 284/1093/281 286/1094/281 287/1095/281 285/1096/281
f 285/1097/282 287/1098/282 271/1099/282
f 288/1100/283 286/1101/283 270/1102/283
f 286/1103/284 288/1104/284 289/1105/284 287/1106/284
f 287/1107/285 289/1108/285 271/1109/285
f 290/1110/286 288/1111/286 270/1112/286
f 288/1113/287 290/1114/287 291/1115/287 289/1116/287
f 289/1117/288 291/1118/288 271/1119/288
f 292/1120/289 290/1121/289 270/1122/289
f 290/1123/290 292/1124/290 293/1125/290 291/1126/290
f 291/1127/291 293/1128/291 271/1129/291
f 294/1130/292 292/1131/292 270/1132/292
f 292/1133/293 294/1134/293 295/1135/293 293/1136/293
f 293/1137/294 295/1138/294 271/1139/294
f 272/1140/295 294/1141/295 270/1142/295
f 294/1143/296 272/1144/296 273/1145/296 295/1146/296
f 295/1147/297 273/1148/297 271/1149/297
o cuboid
v -0.0375 0.31875 0.03125
v -0.0375 0.31875 -0.04375
v -0.0375 0.24375 0.03125
v -0.0375 0.24375 -0.04375
v -0.0625 0.31875 0.03125
v -0.0625 0.31875 -0.04375
v -0.0625 0.24375 0.03125
v -0.0625 0.24375 -0.04375
vt 0.46875 0.65625
vt 0.453125 0.65625
vt 0.453125 0.640625
vt 0.46875 0.640625
vt 0.390625 0.53125
vt 0.390625 0.546875
vt 0.375 0.546875
vt 0.375 0.53125
vt 0.453125 0.609375
vt 0.46875 0.609375
vt 0.46875 0.625
vt 0.453125 0.625
vt 0.453125 0.53125
vt 0.453125 0.546875
vt 0.4375 0.546875
vt 0.4375 0.53125
vt 0.046875 0.515625
vt 0.046875 0.53125
vt 0.03125 0.53125
vt 0.03125 0.515625
vt 0.484375 0.96875
vt 0.46875 0.96875
vt 0.46875 0.953125
vt 0.484375 0.953125
vn 1 0 0
vn -1 0 0
vn 0 1 0
vn 0 -1 0
vn 0 0 1
vn 0 0 -1
usemtl m_5477c04c-f4b8-9707-abd6-cd571960704f
f 297/1150/298 296/1151/298 298/1152/298 299/1153/298
f 302/1154/299 300/1155/299 301/1156/299 303/1157/299
f 300/1158/300 296/1159/300 297/1160/300 301/1161/300
f 299/1162/301 298/1163/301 302/1164/301 303/1165/301
f 298/1166/302 296/1167/302 300/1168/302 302/1169/302
f 301/1170/303 297/1171/303 299/1172/303 303/1173/303
o cuboid
v 0.0625 0.31875 0.03125
v 0.0625 0.31875 -0.04375
v 0.0625 0.24375 0.03125
v 0.0625 0.24375 -0.04375
v 0.0375 0.31875 0.03125
v 0.0375 0.31875 -0.04375
v 0.0375 0.24375 0.03125
v 0.0375 0.24375 -0.04375
vt 0.078125 0.53125
vt 0.0625 0.53125
vt 0.0625 0.515625
vt 0.078125 0.515625
vt 0.484375 0.921875
vt 0.484375 0.9375
vt 0.46875 0.9375
vt 0.46875 0.921875
vt 0.46875 0.890625
vt 0.484375 0.890625
vt 0.484375 0.90625
vt 0.46875 0.90625
vt 0.140625 0.515625
vt 0.140625 0.53125
vt 0.125 0.53125
vt 0.125 0.515625
vt 0.171875 0.515625
vt 0.171875 0.53125
vt 0.15625 0.53125
vt 0.15625 0.515625
vt 0.484375 0.78125
vt 0.46875 0.78125
vt 0.46875 0.765625
vt 0.484375 0.765625
vn 1 0 0
vn -1 0 0
vn 0 1 0
vn 0 -1 0
vn 0 0 1
vn 0 0 -1
usemtl m_5477c04c-f4b8-9707-abd6-cd571960704f
f 305/1174/304 304/1175/304 306/1176/304 307/1177/304
f 310/1178/305 308/1179/305 309/1180/305 311/1181/305
f 308/1182/306 304/1183/306 305/1184/306 309/1185/306
f 307/1186/307 306/1187/307 310/1188/307 311/1189/307
f 306/1190/308 304/1191/308 308/1192/308 310/1193/308
f 309/1194/309 305/1195/309 307/1196/309 311/1197/309
o cylinder
v 0.0378125 0.3187500000000002 -0.006250000000000001
v 0.0621875 0.3187500000000002 -0.006250000000000001
v 0.0378125 0.31372595264191666 0.012499999999999995
v 0.0621875 0.31372595264191666 0.012499999999999995
v 0.0378125 0.30502404735808375 0.00747595264191645
v 0.0621875 0.30502404735808375 0.00747595264191645
v 0.0378125 0.3000000000000002 -0.001225952641916452
v 0.06218750000000001 0.3000000000000002 -0.001225952641916452
v 0.0378125 0.3000000000000002 -0.011274047358083551
v 0.06218750000000001 0.3000000000000002 -0.011274047358083551
v 0.0378125 0.30502404735808375 -0.01997595264191645
v 0.0621875 0.30502404735808375 -0.01997595264191645
v 0.0378125 0.31372595264191666 -0.024999999999999994
v 0.0621875 0.31372595264191666 -0.024999999999999994
v 0.0378125 0.32377404735808374 -0.025
v 0.0621875 0.32377404735808374 -0.025
v 0.0378125 0.33247595264191665 -0.019975952641916456
v 0.0621875 0.33247595264191665 -0.019975952641916456
v 0.0378125 0.3375000000000002 -0.011274047358083548
v 0.06218749999999999 0.3375000000000002 -0.011274047358083548
v 0.0378125 0.3375000000000002 -0.0012259526419164599
v 0.06218749999999999 0.3375000000000002 -0.0012259526419164599
v 0.0378125 0.33247595264191665 0.007475952641916445
v 0.0621875 0.33247595264191665 0.007475952641916445
v 0.0378125 0.32377404735808374 0.012499999999999995
v 0.0621875 0.32377404735808374 0.012499999999999995
vt 0.04249375 0.49249374999999995
vt 0.04031875 0.49375
vt 0.0390625 0.48906249999999996
vt 0.41531875 0.49390625
vt 0.41783125 0.49390625
vt 0.41783125 0.5
vt 0.41531875 0.5
vt 0.50906875 0.959375
vt 0.51124375 0.96063125
vt 0.5078125 0.9640625
vt 0.04375 0.49031875
vt 0.04249375 0.49249374999999995
vt 0.0390625 0.48906249999999996
vt 0.50404375 0.68140625
vt 0.50655625 0.68140625
vt 0.50655625 0.6875
vt 0.50404375 0.6875
vt 0.51124375 0.96063125
vt 0.5125 0.96280625
vt 0.5078125 0.9640625
vt 0.04375 0.48780625
vt 0.04375 0.49031875
vt 0.0390625 0.48906249999999996
vt 0.50655625 0.68140625
vt 0.50906875 0.68140625
vt 0.50906875 0.6875
vt 0.50655625 0.6875
vt 0.5125 0.96280625
vt 0.5125 0.96531875
vt 0.5078125 0.9640625
vt 0.04249375 0.48563124999999996
vt 0.04375 0.48780625
vt 0.0390625 0.48906249999999996
vt 0.50906875 0.68140625
vt 0.51158125 0.68140625
vt 0.51158125 0.6875
vt 0.50906875 0.6875
vt 0.5125 0.96531875
vt 0.51124375 0.96749375
vt 0.5078125 0.9640625
vt 0.04031875 0.484375
vt 0.04249375 0.48563124999999996
vt 0.0390625 0.48906249999999996
vt 0.50404375 0.55640625
vt 0.50655625 0.55640625
vt 0.50655625 0.5625
vt 0.50404375 0.5625
vt 0.51124375 0.96749375
vt 0.50906875 0.96875
vt 0.5078125 0.9640625
vt 0.03780625 0.484375
vt 0.04031875 0.484375
vt 0.0390625 0.48906249999999996
vt 0.50655625 0.55640625
vt 0.50906875 0.55640625
vt 0.50906875 0.5625
vt 0.50655625 0.5625
vt 0.50906875 0.96875
vt 0.50655625 0.96875
vt 0.5078125 0.9640625
vt 0.03563125 0.48563124999999996
vt 0.03780625 0.484375
vt 0.0390625 0.48906249999999996
vt 0.50906875 0.55640625
vt 0.51158125 0.55640625
vt 0.51158125 0.5625
vt 0.50906875 0.5625
vt 0.50655625 0.96875
vt 0.50438125 0.96749375
vt 0.5078125 0.9640625
vt 0.034375 0.48780625
vt 0.03563125 0.48563124999999996
vt 0.0390625 0.48906249999999996
vt 0.50404375 0.58765625
vt 0.50655625 0.58765625
vt 0.50655625 0.59375
vt 0.50404375 0.59375
vt 0.50438125 0.96749375
vt 0.503125 0.96531875
vt 0.5078125 0.9640625
vt 0.034375 0.49031875
vt 0.034375 0.48780625
vt 0.0390625 0.48906249999999996
vt 0.50655625 0.58765625
vt 0.50906875 0.58765625
vt 0.50906875 0.59375
vt 0.50655625 0.59375
vt 0.503125 0.96531875
vt 0.503125 0.96280625
vt 0.5078125 0.9640625
vt 0.03563125 0.49249374999999995
vt 0.034375 0.49031875
vt 0.0390625 0.48906249999999996
vt 0.50906875 0.58765625
vt 0.51158125 0.58765625
vt 0.51158125 0.59375
vt 0.50906875 0.59375
vt 0.503125 0.96280625
vt 0.50438125 0.96063125
vt 0.5078125 0.9640625
vt 0.03780625 0.49375
vt 0.03563125 0.49249374999999995
vt 0.0390625 0.48906249999999996
vt 0.41029375 0.49390625
vt 0.41280625 0.49390625
vt 0.41280625 0.5
vt 0.41029375 0.5
vt 0.50438125 0.96063125
vt 0.50655625 0.959375
vt 0.5078125 0.9640625
vt 0.04031875 0.49375
vt 0.03780625 0.49375
vt 0.0390625 0.48906249999999996
vt 0.41280625 0.49390625
vt 0.41531875 0.49390625
vt 0.41531875 0.5
vt 0.41280625 0.5
vt 0.50655625 0.959375
vt 0.50906875 0.959375
vt 0.5078125 0.9640625
vn -1 -2.220446049250313e-16 0
vn 1.1102230246251558e-16 -0.49999999999999967 0.8660254037844388
vn 1 2.220446049250313e-16 0
vn -1 -2.220446049250313e-16 0
vn 1.9229626863835643e-16 -0.8660254037844388 0.5
vn 1 2.220446049250313e-16 0
vn -1 -2.220446049250313e-16 0
vn 2.220446049250313e-16 -1 0
vn 1 2.220446049250313e-16 0
vn -1 -2.220446049250313e-16 0
vn 1.9229626863835643e-16 -0.8660254037844388 -0.49999999999999967
vn 1 2.220446049250313e-16 0
vn -1 -2.220446049250313e-16 0
vn 1.1102230246251565e-16 -0.5 -0.8660254037844387
vn 1 2.220446049250313e-16 0
vn -1 -2.220446049250313e-16 0
vn 1.5333692595779135e-31 -6.905681226056465e-16 -1
vn 1 2.220446049250313e-16 0
vn -1 -2.220446049250313e-16 0
vn -1.1102230246251558e-16 0.49999999999999967 -0.8660254037844389
vn 1 2.220446049250313e-16 0
vn -1 -2.220446049250313e-16 0
vn -1.9229626863835646e-16 0.8660254037844389 -0.49999999999999956
vn 1 2.220446049250313e-16 0
vn -1 -2.220446049250313e-16 0
vn -2.220446049250313e-16 1 -6.905681226056471e-16
vn 1 2.220446049250313e-16 0
vn -1 -2.220446049250313e-16 0
vn -1.9229626863835646e-16 0.8660254037844389 0.49999999999999967
vn 1 2.220446049250313e-16 0
vn -1 -2.220446049250313e-16 0
vn -1.110223024625156e-16 0.4999999999999998 0.8660254037844388
vn 1 2.220446049250313e-16 0
vn -1 -2.220446049250313e-16 0
vn 0 0 1
vn 1 2.220446049250313e-16 0
usemtl m_5477c04c-f4b8-9707-abd6-cd571960704f
f 316/1198/310 314/1199/310 312/1200/310
f 314/1201/311 316/1202/311 317/1203/311 315/1204/311
f 315/1205/312 317/1206/312 313/1207/312
f 318/1208/313 316/1209/313 312/1210/313
f 316/1211/314 318/1212/314 319/1213/314 317/1214/314
f 317/1215/315 319/1216/315 313/1217/315
f 320/1218/316 318/1219/316 312/1220/316
f 318/1221/317 320/1222/317 321/1223/317 319/1224/317
f 319/1225/318 321/1226/318 313/1227/318
f 322/1228/319 320/1229/319 312/1230/319
f 320/1231/320 322/1232/320 323/1233/320 321/1234/320
f 321/1235/321 323/1236/321 313/1237/321
f 324/1238/322 322/1239/322 312/1240/322
f 322/1241/323 324/1242/323 325/1243/323 323/1244/323
f 323/1245/324 325/1246/324 313/1247/324
f 326/1248/325 324/1249/325 312/1250/325
f 324/1251/326 326/1252/326 327/1253/326 325/1254/326
f 325/1255/327 327/1256/327 313/1257/327
f 328/1258/328 326/1259/328 312/1260/328
f 326/1261/329 328/1262/329 329/1263/329 327/1264/329
f 327/1265/330 329/1266/330 313/1267/330
f 330/1268/331 328/1269/331 312/1270/331
f 328/1271/332 330/1272/332 331/1273/332 329/1274/332
f 329/1275/333 331/1276/333 313/1277/333
f 332/1278/334 330/1279/334 312/1280/334
f 330/1281/335 332/1282/335 333/1283/335 331/1284/335
f 331/1285/336 333/1286/336 313/1287/336
f 334/1288/337 332/1289/337 312/1290/337
f 332/1291/338 334/1292/338 335/1293/338 333/1294/338
f 333/1295/339 335/1296/339 313/1297/339
f 336/1298/340 334/1299/340 312/1300/340
f 334/1301/341 336/1302/341 337/1303/341 335/1304/341
f 335/1305/342 337/1306/342 313/1307/342
f 314/1308/343 336/1309/343 312/1310/343
f 336/1311/344 314/1312/344 315/1313/344 337/1314/344
f 337/1315/345 315/1316/345 313/1317/345
o cylinder
v -0.06218750000000002 0.319375 -0.006250000000000001
v -0.03781250000000002 0.319375 -0.006250000000000001
v -0.06218750000000002 0.3143509526419165 0.012499999999999995
v -0.03781250000000002 0.3143509526419165 0.012499999999999995
v -0.06218750000000002 0.30564904735808357 0.00747595264191645
v -0.03781250000000002 0.30564904735808357 0.00747595264191645
v -0.06218750000000002 0.30062500000000003 -0.001225952641916452
v -0.03781250000000001 0.30062500000000003 -0.001225952641916452
v -0.06218750000000002 0.30062500000000003 -0.011274047358083551
v -0.03781250000000001 0.30062500000000003 -0.011274047358083551
v -0.06218750000000002 0.30564904735808357 -0.01997595264191645
v -0.03781250000000002 0.30564904735808357 -0.01997595264191645
v -0.06218750000000002 0.3143509526419165 -0.024999999999999994
v -0.03781250000000002 0.3143509526419165 -0.024999999999999994
v -0.06218750000000002 0.32439904735808356 -0.025
v -0.03781250000000002 0.32439904735808356 -0.025
v -0.06218750000000002 0.33310095264191647 -0.019975952641916456
v -0.03781250000000002 0.33310095264191647 -0.019975952641916456
v -0.06218750000000002 0.338125 -0.011274047358083548
v -0.03781250000000003 0.338125 -0.011274047358083548
v -0.06218750000000002 0.338125 -0.0012259526419164599
v -0.03781250000000003 0.338125 -0.0012259526419164599
v -0.06218750000000002 0.33310095264191647 0.007475952641916445
v -0.03781250000000002 0.33310095264191647 0.007475952641916445
v -0.06218750000000002 0.32439904735808356 0.012499999999999995
v -0.03781250000000002 0.32439904735808356 0.012499999999999995
vt 0.44874375 0.50811875
vt 0.44656875 0.509375
vt 0.4453125 0.5046875
vt 0.29031875 0.49390625
vt 0.29283125 0.49390625
vt 0.29283125 0.5
vt 0.29031875 0.5
vt 0.50906875 0.990625
vt 0.51124375 0.99188125
vt 0.5078125 0.9953125
vt 0.45 0.50594375
vt 0.44874375 0.50811875
vt 0.4453125 0.5046875
vt 0.50404375 0.74390625
vt 0.50655625 0.74390625
vt 0.50655625 0.75
vt 0.50404375 0.75
vt 0.51124375 0.99188125
vt 0.5125 0.99405625
vt 0.5078125 0.9953125
vt 0.45 0.50343125
vt 0.45 0.50594375
vt 0.4453125 0.5046875
vt 0.50655625 0.74390625
vt 0.50906875 0.74390625
vt 0.50906875 0.75
vt 0.50655625 0.75
vt 0.5125 0.99405625
vt 0.5125 0.99656875
vt 0.5078125 0.9953125
vt 0.44874375 0.50125625
vt 0.45 0.50343125
vt 0.4453125 0.5046875
vt 0.50906875 0.74390625
vt 0.51158125 0.74390625
vt 0.51158125 0.75
vt 0.50906875 0.75
vt 0.5125 0.99656875
vt 0.51124375 0.99874375
vt 0.5078125 0.9953125
vt 0.44656875 0.5
vt 0.44874375 0.50125625
vt 0.4453125 0.5046875
vt 0.31654375 0.49390625
vt 0.31905625 0.49390625
vt 0.31905625 0.5
vt 0.31654375 0.5
vt 0.51124375 0.99874375
vt 0.50906875 1
vt 0.5078125 0.9953125
vt 0.44405625 0.5
vt 0.44656875 0.5
vt 0.4453125 0.5046875
vt 0.31905625 0.49390625
vt 0.32156875 0.49390625
vt 0.32156875 0.5
vt 0.31905625 0.5
vt 0.50906875 1
vt 0.50655625 1
vt 0.5078125 0.9953125
vt 0.44188125 0.50125625
vt 0.44405625 0.5
vt 0.4453125 0.5046875
vt 0.32156875 0.49390625
vt 0.32408125 0.49390625
vt 0.32408125 0.5
vt 0.32156875 0.5
vt 0.50655625 1
vt 0.50438125 0.99874375
vt 0.5078125 0.9953125
vt 0.440625 0.50343125
vt 0.44188125 0.50125625
vt 0.4453125 0.5046875
vt 0.50404375 0.71265625
vt 0.50655625 0.71265625
vt 0.50655625 0.71875
vt 0.50404375 0.71875
vt 0.50438125 0.99874375
vt 0.503125 0.99656875
vt 0.5078125 0.9953125
vt 0.440625 0.50594375
vt 0.440625 0.50343125
vt 0.4453125 0.5046875
vt 0.50655625 0.71265625
vt 0.50906875 0.71265625
vt 0.50906875 0.71875
vt 0.50655625 0.71875
vt 0.503125 0.99656875
vt 0.503125 0.99405625
vt 0.5078125 0.9953125
vt 0.44188125 0.50811875
vt 0.440625 0.50594375
vt 0.4453125 0.5046875
vt 0.50906875 0.71265625
vt 0.51158125 0.71265625
vt 0.51158125 0.71875
vt 0.50906875 0.71875
vt 0.503125 0.99405625
vt 0.50438125 0.99188125
vt 0.5078125 0.9953125
vt 0.44405625 0.509375
vt 0.44188125 0.50811875
vt 0.4453125 0.5046875
vt 0.28529375 0.49390625
vt 0.28780625 0.49390625
vt 0.28780625 0.5
vt 0.28529375 0.5
vt 0.50438125 0.99188125
vt 0.50655625 0.990625
vt 0.5078125 0.9953125
vt 0.44656875 0.509375
vt 0.44405625 0.509375
vt 0.4453125 0.5046875
vt 0.28780625 0.49390625
vt 0.29031875 0.49390625
vt 0.29031875 0.5
vt 0.28780625 0.5
vt 0.50655625 0.990625
vt 0.50906875 0.990625
vt 0.5078125 0.9953125
vn -1 -2.220446049250313e-16 0
vn 1.1102230246251558e-16 -0.49999999999999967 0.8660254037844388
vn 1 2.220446049250313e-16 0
vn -1 -2.220446049250313e-16 0
vn 1.9229626863835643e-16 -0.8660254037844388 0.5
vn 1 2.220446049250313e-16 0
vn -1 -2.220446049250313e-16 0
vn 2.220446049250313e-16 -1 0
vn 1 2.220446049250313e-16 0
vn -1 -2.220446049250313e-16 0
vn 1.9229626863835643e-16 -0.8660254037844388 -0.49999999999999967
vn 1 2.220446049250313e-16 0
vn -1 -2.220446049250313e-16 0
vn 1.1102230246251565e-16 -0.5 -0.8660254037844387
vn 1 2.220446049250313e-16 0
vn -1 -2.220446049250313e-16 0
vn 1.5333692595779135e-31 -6.905681226056465e-16 -1
vn 1 2.220446049250313e-16 0
vn -1 -2.220446049250313e-16 0
vn -1.1102230246251558e-16 0.49999999999999967 -0.8660254037844389
vn 1 2.220446049250313e-16 0
vn -1 -2.220446049250313e-16 0
vn -1.9229626863835646e-16 0.8660254037844389 -0.49999999999999956
vn 1 2.220446049250313e-16 0
vn -1 -2.220446049250313e-16 0
vn -2.220446049250313e-16 1 -6.905681226056471e-16
vn 1 2.220446049250313e-16 0
vn -1 -2.220446049250313e-16 0
vn -1.9229626863835646e-16 0.8660254037844389 0.49999999999999967
vn 1 2.220446049250313e-16 0
vn -1 -2.220446049250313e-16 0
vn -1.110223024625156e-16 0.4999999999999998 0.8660254037844388
vn 1 2.220446049250313e-16 0
vn -1 -2.220446049250313e-16 0
vn 0 0 1
vn 1 2.220446049250313e-16 0
usemtl m_5477c04c-f4b8-9707-abd6-cd571960704f
f 342/1318/346 340/1319/346 338/1320/346
f 340/1321/347 342/1322/347 343/1323/347 341/1324/347
f 341/1325/348 343/1326/348 339/1327/348
f 344/1328/349 342/1329/349 338/1330/349
f 342/1331/350 344/1332/350 345/1333/350 343/1334/350
f 343/1335/351 345/1336/351 339/1337/351
f 346/1338/352 344/1339/352 338/1340/352
f 344/1341/353 346/1342/353 347/1343/353 345/1344/353
f 345/1345/354 347/1346/354 339/1347/354
f 348/1348/355 346/1349/355 338/1350/355
f 346/1351/356 348/1352/356 349/1353/356 347/1354/356
f 347/1355/357 349/1356/357 339/1357/357
f 350/1358/358 348/1359/358 338/1360/358
f 348/1361/359 350/1362/359 351/1363/359 349/1364/359
f 349/1365/360 351/1366/360 339/1367/360
f 352/1368/361 350/1369/361 338/1370/361
f 350/1371/362 352/1372/362 353/1373/362 351/1374/362
f 351/1375/363 353/1376/363 339/1377/363
f 354/1378/364 352/1379/364 338/1380/364
f 352/1381/365 354/1382/365 355/1383/365 353/1384/365
f 353/1385/366 355/1386/366 339/1387/366
f 356/1388/367 354/1389/367 338/1390/367
f 354/1391/368 356/1392/368 357/1393/368 355/1394/368
f 355/1395/369 357/1396/369 339/1397/369
f 358/1398/370 356/1399/370 338/1400/370
f 356/1401/371 358/1402/371 359/1403/371 357/1404/371
f 357/1405/372 359/1406/372 339/1407/372
f 360/1408/373 358/1409/373 338/1410/373
f 358/1411/374 360/1412/374 361/1413/374 359/1414/374
f 359/1415/375 361/1416/375 339/1417/375
f 362/1418/376 360/1419/376 338/1420/376
f 360/1421/377 362/1422/377 363/1423/377 361/1424/377
f 361/1425/378 363/1426/378 339/1427/378
f 340/1428/379 362/1429/379 338/1430/379
f 362/1431/380 340/1432/380 341/1433/380 363/1434/380
f 363/1435/381 341/1436/381 339/1437/381
o cuboid
v -1.3877787807814457e-17 0.25 0.03125
v -1.3877787807814457e-17 0.25 -0.03125
v -0.062217194570135734 0.25 0.03125
v -0.062217194570135734 0.25 -0.03125
v -0.125 0 0.03125
v -0.125 0 -0.03125
v -0.06278280542986427 0 0.03125
v -0.06278280542986427 0 -0.03125
vt 0.25 0.671875
vt 0.25 0.609375
vt 0.265625 0.609375
vt 0.265625 0.671875
vt 0.046875 0.65625
vt 0.03125 0.65625
vt 0.03125 0.59375
vt 0.046875 0.59375
vt 0.484375 0.734375
vt 0.484375 0.75
vt 0.46875 0.75
vt 0.46875 0.734375
vt 0.296875 0.515625
vt 0.296875 0.53125
vt 0.28125 0.53125
vt 0.28125 0.515625
vt 0.35442707610991586 0.8125
vt 0.35063853867976985 0.828125
vt 0.28619792389008414 0.828125
vt 0.28998646132023015 0.8125
vt 0.046875 0.90625
vt 0.046875 0.8418093852103143
vt 0.0625 0.8380208477801683
vt 0.0625 0.902461462569854
vt 0 0.65625
vt 0 0.59375
vt 0.015625 0.59375
vt 0.015625 0.65625
vt 0.078125 0.65625
vt 0.0625 0.65625
vt 0.0625 0.59375
vt 0.078125 0.59375
vt 0.484375 0.703125
vt 0.484375 0.71875
vt 0.46875 0.71875
vt 0.46875 0.703125
vt 0.328125 0.515625
vt 0.328125 0.53125
vt 0.3125 0.53125
vt 0.3125 0.515625
vt 0.35442707610991586 0.75
vt 0.35063853867976985 0.765625
vt 0.28619792389008414 0.765625
vt 0.28998646132023015 0.75
vt 0.125 0.703125
vt 0.125 0.6386843852103143
vt 0.140625 0.6348958477801683
vt 0.140625 0.6993364625698539
vn 0.9698837967977157 -0.24356810281571595 0
vn -0.9698837967977157 0.24356810281571606 0
vn 0 1 0
vn 0 -1 0
vn 0 0 1
vn 0 0 -1
vn 0.9698837967977157 -0.24356810281571595 0
vn -0.9698837967977157 0.24356810281571606 0
vn 0 1 0
vn 0 -1 0
vn 0 0 1
vn 0 0 -1
usemtl m_5477c04c-f4b8-9707-abd6-cd571960704f
f 364/1438/382 370/1439/382 371/1440/382 365/1441/382
f 366/1442/383 367/1443/383 369/1444/383 368/1445/383
f 364/1446/384 365/1447/384 367/1448/384 366/1449/384
f 371/1450/385 370/1451/385 368/1452/385 369/1453/385
f 364/1454/386 366/1455/386 368/1456/386 370/1457/386
f 365/1458/387 371/1459/387 369/1460/387 367/1461/387
f 364/1462/388 370/1463/388 371/1464/388 365/1465/388
f 366/1466/389 367/1467/389 369/1468/389 368/1469/389
f 364/1470/390 365/1471/390 367/1472/390 366/1473/390
f 371/1474/391 370/1475/391 368/1476/391 369/1477/391
f 364/1478/392 366/1479/392 368/1480/392 370/1481/392
f 365/1482/393 371/1483/393 369/1484/393 367/1485/393
o cuboid
v 0.031249999999999993 0.25 -0.006249999999999978
v -0.03125 0.25 -0.006249999999999992
v 0.03124999999999998 0.25 0.055967194570135735
v -0.031250000000000014 0.25 0.055967194570135735
v 0.031249999999999965 0 0.11875000000000002
v -0.03125000000000003 0 0.11875000000000002
v 0.03124999999999998 0 0.05653280542986427
v -0.031250000000000014 0 0.05653280542986427
vt 0.28125 0.609375
vt 0.28125 0.546875
vt 0.296875 0.546875
vt 0.296875 0.609375
vt 0.109375 0.59375
vt 0.09375 0.59375
vt 0.09375 0.53125
vt 0.109375 0.53125
vt 0.203125 0.5
vt 0.203125 0.515625
vt 0.1875 0.515625
vt 0.1875 0.5
vt 0.5 0.796875
vt 0.5 0.8125
vt 0.484375 0.8125
vt 0.484375 0.796875
vt 0.40130207610991586 0.953125
vt 0.39751353867976985 0.96875
vt 0.33307292389008414 0.96875
vt 0.33686146132023015 0.953125
vt 0.1875 0.671875
vt 0.1875 0.6074343852103143
vt 0.203125 0.6036458477801683
vt 0.203125 0.6680864625698539
vt 0.3125 0.609375
vt 0.3125 0.546875
vt 0.328125 0.546875
vt 0.328125 0.609375
vt 0.421875 0.859375
vt 0.40625 0.859375
vt 0.40625 0.796875
vt 0.421875 0.796875
vt 0.234375 0.5
vt 0.234375 0.515625
vt 0.21875 0.515625
vt 0.21875 0.5
vt 0.359375 0.5
vt 0.359375 0.515625
vt 0.34375 0.515625
vt 0.34375 0.5
vt 0.40130207610991586 0.71875
vt 0.39751353867976985 0.734375
vt 0.33307292389008414 0.734375
vt 0.33686146132023015 0.71875
vt 0.21875 0.671875
vt 0.21875 0.6074343852103143
vt 0.234375 0.6036458477801683
vt 0.234375 0.6680864625698539
vn 2.1535746448313814e-16 -0.24356810281571595 -0.9698837967977157
vn -2.1535746448313814e-16 0.24356810281571606 0.9698837967977157
vn 0 1 0
vn 0 -1 0
vn 1 0 2.220446049250313e-16
vn -1 0 -2.220446049250313e-16
vn 2.1535746448313814e-16 -0.24356810281571595 -0.9698837967977157
vn -2.1535746448313814e-16 0.24356810281571606 0.9698837967977157
vn 0 1 0
vn 0 -1 0
vn 1 0 2.220446049250313e-16
vn -1 0 -2.220446049250313e-16
usemtl m_5477c04c-f4b8-9707-abd6-cd571960704f
f 372/1486/394 378/1487/394 379/1488/394 373/1489/394
f 374/1490/395 375/1491/395 377/1492/395 376/1493/395
f 372/1494/396 373/1495/396 375/1496/396 374/1497/396
f 379/1498/397 378/1499/397 376/1500/397 377/1501/397
f 372/1502/398 374/1503/398 376/1504/398 378/1505/398
f 373/1506/399 379/1507/399 377/1508/399 375/1509/399
f 372/1510/400 378/1511/400 379/1512/400 373/1513/400
f 374/1514/401 375/1515/401 377/1516/401 376/1517/401
f 372/1518/402 373/1519/402 375/1520/402 374/1521/402
f 379/1522/403 378/1523/403 376/1524/403 377/1525/403
f 372/1526/404 374/1527/404 376/1528/404 378/1529/404
f 373/1530/405 379/1531/405 377/1532/405 375/1533/405
o cuboid
v -0.03125 0.25 -0.0062500000000000056
v 0.031249999999999993 0.25 -0.006250000000000019
v -0.031250000000000014 0.25 -0.06846719457013573
v 0.03124999999999998 0.25 -0.06846719457013573
v -0.03125000000000003 0 -0.13125
v 0.031249999999999965 0 -0.13125
v -0.031250000000000014 0 -0.06903280542986426
v 0.03124999999999998 0 -0.06903280542986426
vt 0.375 0.625
vt 0.375 0.5625
vt 0.390625 0.5625
vt 0.390625 0.625
vt 0.140625 0.609375
vt 0.125 0.609375
vt 0.125 0.546875
vt 0.140625 0.546875
vt 0.484375 0.515625
vt 0.484375 0.53125
vt 0.46875 0.53125
vt 0.46875 0.515625
vt 0.109375 0.5
vt 0.109375 0.515625
vt 0.09375 0.515625
vt 0.09375 0.5
vt 0.07317707610991583 0.671875
vt 0.06938853867976984 0.6875
vt 0.004947923890084166 0.6875
vt 0.008736461320230163 0.671875
vt 0.09375 0.6875
vt 0.09375 0.6230593852103143
vt 0.109375 0.6192708477801683
vt 0.109375 0.6837114625698539
vt 0.390625 0.9375
vt 0.390625 0.875
vt 0.40625 0.875
vt 0.40625 0.9375
vt 0.171875 0.609375
vt 0.15625 0.609375
vt 0.15625 0.546875
vt 0.171875 0.546875
vt 0.5 0.859375
vt 0.5 0.875
vt 0.484375 0.875
vt 0.484375 0.859375
vt 0.5 0.828125
vt 0.5 0.84375
vt 0.484375 0.84375
vt 0.484375 0.828125
vt 0.38567707610991586 0.84375
vt 0.38188853867976985 0.859375
vt 0.31744792389008414 0.859375
vt 0.32123646132023015 0.84375
vt 0.3125 0.703125
vt 0.3125 0.6386843852103143
vt 0.328125 0.6348958477801683
vt 0.328125 0.6993364625698539
vn 2.1535746448313814e-16 -0.24356810281571595 0.9698837967977157
vn -2.1535746448313814e-16 0.24356810281571606 -0.9698837967977157
vn 0 1 0
vn 0 -1 0
vn -1 0 2.220446049250313e-16
vn 1 0 -2.220446049250313e-16
vn 2.1535746448313814e-16 -0.24356810281571595 0.9698837967977157
vn -2.1535746448313814e-16 0.24356810281571606 -0.9698837967977157
vn 0 1 0
vn 0 -1 0
vn -1 0 2.220446049250313e-16
vn 1 0 -2.220446049250313e-16
usemtl m_5477c04c-f4b8-9707-abd6-cd571960704f
f 380/1534/406 386/1535/406 387/1536/406 381/1537/406
f 382/1538/407 383/1539/407 385/1540/407 384/1541/407
f 380/1542/408 381/1543/408 383/1544/408 382/1545/408
f 387/1546/409 386/1547/409 384/1548/409 385/1549/409
f 380/1550/410 382/1551/410 384/1552/410 386/1553/410
f 381/1554/411 387/1555/411 385/1556/411 383/1557/411
f 380/1558/412 386/1559/412 387/1560/412 381/1561/412
f 382/1562/413 383/1563/413 385/1564/413 384/1565/413
f 380/1566/414 381/1567/414 383/1568/414 382/1569/414
f 387/1570/415 386/1571/415 384/1572/415 385/1573/415
f 380/1574/416 382/1575/416 384/1576/416 386/1577/416
f 381/1578/417 387/1579/417 385/1580/417 383/1581/417
o cuboid
v 6.938893903907228e-18 0.25 -0.03125000000000001
v 2.0816681711721685e-17 0.25 0.031249999999999993
v 0.062217194570135734 0.25 -0.031250000000000014
v 0.062217194570135734 0.25 0.031249999999999986
v 0.125 0 -0.03125000000000002
v 0.125 0 0.03124999999999998
v 0.06278280542986427 0 -0.031250000000000014
v 0.06278280542986427 0 0.031249999999999986
vt 0.34375 0.703125
vt 0.34375 0.640625
vt 0.359375 0.640625
vt 0.359375 0.703125
vt 0.390625 0.703125
vt 0.375 0.703125
vt 0.375 0.640625
vt 0.390625 0.640625
vt 0.484375 0.671875
vt 0.484375 0.6875
vt 0.46875 0.6875
vt 0.46875 0.671875
vt 0.421875 0.515625
vt 0.421875 0.53125
vt 0.40625 0.53125
vt 0.40625 0.515625
vt 0.37005207610991586 0.875
vt 0.36626353867976985 0.890625
vt 0.30182292389008414 0.890625
vt 0.30561146132023015 0.875
vt 0.15625 0.703125
vt 0.15625 0.6386843852103143
vt 0.171875 0.6348958477801683
vt 0.171875 0.6993364625698539
vt 0.375 0.828125
vt 0.375 0.765625
vt 0.390625 0.765625
vt 0.390625 0.828125
vt 0.359375 0.625
vt 0.34375 0.625
vt 0.34375 0.5625
vt 0.359375 0.5625
vt 0.484375 0.578125
vt 0.484375 0.59375
vt 0.46875 0.59375
vt 0.46875 0.578125
vt 0.484375 0.546875
vt 0.484375 0.5625
vt 0.46875 0.5625
vt 0.46875 0.546875
vt 0.26067707610991586 0.6875
vt 0.25688853867976985 0.703125
vt 0.19244792389008417 0.703125
vt 0.19623646132023015 0.6875
vt 0.28125 0.703125
vt 0.28125 0.6386843852103143
vt 0.296875 0.6348958477801683
vt 0.296875 0.6993364625698539
vn -0.9698837967977157 -0.24356810281571595 1.1877650872932045e-16
vn 0.9698837967977157 0.24356810281571606 -1.1877650872932045e-16
vn 0 1 0
vn 0 -1 0
vn -1.2246467991473532e-16 0 -1
vn 1.2246467991473532e-16 0 1
vn -0.9698837967977157 -0.24356810281571595 1.1877650872932045e-16
vn 0.9698837967977157 0.24356810281571606 -1.1877650872932045e-16
vn 0 1 0
vn 0 -1 0
vn -1.2246467991473532e-16 0 -1
vn 1.2246467991473532e-16 0 1
usemtl m_5477c04c-f4b8-9707-abd6-cd571960704f
f 388/1582/418 394/1583/418 395/1584/418 389/1585/418
f 390/1586/419 391/1587/419 393/1588/419 392/1589/419
f 388/1590/420 389/1591/420 391/1592/420 390/1593/420
f 395/1594/421 394/1595/421 392/1596/421 393/1597/421
f 388/1598/422 390/1599/422 392/1600/422 394/1601/422
f 389/1602/423 395/1603/423 393/1604/423 391/1605/423
f 388/1606/424 394/1607/424 395/1608/424 389/1609/424
f 390/1610/425 391/1611/425 393/1612/425 392/1613/425
f 388/1614/426 389/1615/426 391/1616/426 390/1617/426
f 395/1618/427 394/1619/427 392/1620/427 393/1621/427
f 388/1622/428 390/1623/428 392/1624/428 394/1625/428
f 389/1626/429 395/1627/429 393/1628/429 391/1629/429